<svg viewBox="0 0 24 24" xmlns="http://www.w3.org/2000/svg">
<path fill-rule="evenodd" clip-rule="evenodd" d="M9.5 12H14.5C15.8807 12 17 13.1193 17 14.5V16.5C17 17.8807 15.8807 19 14.5 19H9.5C8.11929 19 7 17.8807 7 16.5V14.5C7 13.1193 8.11929 12 9.5 12ZM9.5 14C9.22386 14 9 14.2239 9 14.5V16.5C9 16.7761 9.22386 17 9.5 17H14.5C14.7761 17 15 16.7761 15 16.5V14.5C15 14.2239 14.7761 14 14.5 14H9.5Z" />
<path fill-rule="evenodd" clip-rule="evenodd" d="M12.6 2H11.4C9.1812 2 7.34598 3.64233 7.04367 5.77768C5.22621 6.80875 4 8.76117 4 11V19C4 20.6569 5.34314 22 7 22H17C18.6569 22 20 20.6569 20 19V11C20 8.76117 18.7738 6.80875 16.9563 5.77768C16.654 3.64233 14.8188 2 12.6 2ZM9.43157 5.02657C9.86542 4.40593 10.5853 4 11.4 4H12.6C13.4147 4 14.1346 4.40594 14.5684 5.02658C14.3813 5.00899 14.1917 5 14 5H10C9.80829 5 9.61868 5.00899 9.43157 5.02657ZM10 7C7.79086 7 6 8.79086 6 11V19C6 19.5523 6.44772 20 7 20H17C17.5523 20 18 19.5523 18 19V11C18 8.79086 16.2091 7 14 7H10Z" />
</svg>
