<svg width="24" height="24" viewBox="0 0 24 24" fill="none" xmlns="http://www.w3.org/2000/svg">
<path d="M13.6251 8.18145L13.0967 8.10941C13.0967 8.10941 13.1688 7.92528 13.1688 7.77318C13.1688 7.58906 13.0967 7.43696 13.2088 7.21281C13.3209 6.98866 13.433 6.54036 13.433 6.54036C13.433 6.54036 13.505 7.32488 13.6171 7.58906C13.7692 7.84523 13.6251 8.18145 13.6251 8.18145Z" fill="#BBDD00"/>
<path d="M13.6251 8.18145L13.0967 8.10941C13.0967 8.10941 13.1688 7.92528 13.1688 7.77318C13.1688 7.58906 13.0967 7.43696 13.2088 7.21281C13.3209 6.98866 13.433 6.54036 13.433 6.54036C13.433 6.54036 13.505 7.32488 13.6171 7.58906C13.7692 7.84523 13.6251 8.18145 13.6251 8.18145Z" fill="black" fill-opacity="0.5"/>
<path d="M16.1388 17.2275C16.1388 17.2275 15.4263 17.4116 15.3142 17.5637C15.2021 17.7158 15.2021 18.4283 15.2021 18.4283C15.2021 18.4283 15.5063 18.5003 15.9546 18.8766C16.4029 19.2528 16.7392 19.517 16.7392 19.517C16.7392 19.517 16.8913 18.9887 16.7792 18.7645C16.6671 18.5404 16.555 18.4283 16.555 18.4283C16.555 18.4283 16.7071 18.1641 16.5951 17.8679C16.515 17.5637 16.1388 17.2275 16.1388 17.2275Z" fill="#BBDD00"/>
<path d="M16.1388 17.2275C16.1388 17.2275 15.4263 17.4116 15.3142 17.5637C15.2021 17.7158 15.2021 18.4283 15.2021 18.4283C15.2021 18.4283 15.5063 18.5003 15.9546 18.8766C16.4029 19.2528 16.7392 19.517 16.7392 19.517C16.7392 19.517 16.8913 18.9887 16.7792 18.7645C16.6671 18.5404 16.555 18.4283 16.555 18.4283C16.555 18.4283 16.7071 18.1641 16.5951 17.8679C16.515 17.5637 16.1388 17.2275 16.1388 17.2275Z" fill="black" fill-opacity="0.5"/>
<path d="M16.2829 20.6778C16.2829 20.6778 16.0987 20.7178 15.7945 21.054C15.4583 21.3903 15.5304 21.5023 15.5304 21.5023C15.5304 21.5023 16.0587 21.9506 16.435 22.1027C16.8112 22.2548 16.9633 22.1748 17.2595 22.3669C17.5557 22.559 18.0841 23.0794 18.2362 22.8953C18.3883 22.6711 18.012 22.519 17.4837 21.9907C16.9953 21.4303 16.2829 20.6778 16.2829 20.6778Z" fill="#BBDD00"/>
<path d="M16.2829 20.6778C16.2829 20.6778 16.0987 20.7178 15.7945 21.054C15.4583 21.3903 15.5304 21.5023 15.5304 21.5023C15.5304 21.5023 16.0587 21.9506 16.435 22.1027C16.8112 22.2548 16.9633 22.1748 17.2595 22.3669C17.5557 22.559 18.0841 23.0794 18.2362 22.8953C18.3883 22.6711 18.012 22.519 17.4837 21.9907C16.9953 21.4303 16.2829 20.6778 16.2829 20.6778Z" fill="black" fill-opacity="0.5"/>
<path d="M15.9466 15.3142C15.9466 15.3142 16.7312 13.9293 17.2195 13.7372C17.7078 13.545 18.4203 13.9613 18.4923 13.8492C18.5644 13.7372 18.2282 13.553 18.2282 13.553L18.7885 13.2488C18.7885 13.2488 18.8286 13.4009 19.0847 13.473C19.3489 13.545 20.0614 13.3609 20.0614 13.3609L19.0127 13.8492C19.0127 13.8492 19.573 13.9613 19.9173 14.1855C20.2535 14.3696 20.4777 14.6738 20.4777 14.6738L21.0781 14.7859C21.0781 14.7859 21.038 15.05 20.7018 15.05C20.3656 15.05 18.8606 14.938 18.8606 14.938C18.8606 14.938 18.3002 15.2742 18.4443 15.3863C18.5964 15.4983 19.4209 15.3462 19.4209 15.3462L18.9326 15.6825L18.4443 15.8666C18.4443 15.8666 18.7485 16.1708 19.1568 16.2428C19.573 16.3149 20.1735 16.0907 20.1735 16.0907C20.1735 16.0907 20.3256 16.3949 20.4777 16.5791C20.6298 16.7632 22.3509 17.7799 22.3509 17.7799C22.3509 17.7799 22.2789 18.0841 21.7505 18.044C21.2622 18.004 19.9893 17.5157 19.8773 17.5557C19.7652 17.5957 19.6131 17.6678 19.6131 17.6678C19.6131 17.6678 19.501 17.2515 19.3889 17.1795C19.2769 17.1074 18.9406 17.1394 18.9406 17.1394L18.036 16.467C18.036 16.467 17.7718 17.2915 18.6765 17.8919C19.541 18.4923 20.3256 18.1961 20.3256 18.1961C20.3256 18.1961 21.0781 18.9807 21.4863 19.1728C21.9026 19.3569 23.0234 19.9253 22.8713 19.9973C22.8312 20.0374 22.6871 20.0694 22.6071 20.0374C22.4229 19.9653 22.2708 19.7011 22.0067 19.6211C21.6304 19.509 21.2542 19.6611 21.2542 19.6611L20.9179 19.509L19.8692 19.549L19.493 19.8132L18.8205 19.6611C18.8205 19.6611 18.8606 20.1895 19.1968 20.4136C19.533 20.6378 19.8692 20.5657 19.8692 20.5657C19.8692 20.5657 21.3342 22.2148 22.3109 22.7031C23.2875 23.1514 24 23.3756 24 23.3756C24 23.3756 22.3509 23.0714 21.7105 22.7352C20.6217 22.1348 20.0614 21.6464 19.461 21.2302C18.8606 20.8139 17.6197 20.5897 17.6197 20.5897C17.6197 20.5897 17.6598 19.7652 17.5797 19.461C17.5077 19.1648 17.0514 18.8205 17.0514 18.8205C17.0514 18.8205 17.1234 18.4043 17.1234 18.2201C17.1234 18.036 16.9393 17.996 16.9393 17.996L16.8672 17.6197C16.8672 17.6197 16.3789 16.9073 16.3789 16.571C16.3789 16.2348 16.451 15.8586 16.451 15.8586C16.451 15.8586 16.563 15.3302 16.3789 15.3302C16.2508 15.3142 15.9466 15.3142 15.9466 15.3142Z" fill="#BBDD00"/>
<path d="M15.9466 15.3142C15.9466 15.3142 16.7312 13.9293 17.2195 13.7372C17.7078 13.545 18.4203 13.9613 18.4923 13.8492C18.5644 13.7372 18.2282 13.553 18.2282 13.553L18.7885 13.2488C18.7885 13.2488 18.8286 13.4009 19.0847 13.473C19.3489 13.545 20.0614 13.3609 20.0614 13.3609L19.0127 13.8492C19.0127 13.8492 19.573 13.9613 19.9173 14.1855C20.2535 14.3696 20.4777 14.6738 20.4777 14.6738L21.0781 14.7859C21.0781 14.7859 21.038 15.05 20.7018 15.05C20.3656 15.05 18.8606 14.938 18.8606 14.938C18.8606 14.938 18.3002 15.2742 18.4443 15.3863C18.5964 15.4983 19.4209 15.3462 19.4209 15.3462L18.9326 15.6825L18.4443 15.8666C18.4443 15.8666 18.7485 16.1708 19.1568 16.2428C19.573 16.3149 20.1735 16.0907 20.1735 16.0907C20.1735 16.0907 20.3256 16.3949 20.4777 16.5791C20.6298 16.7632 22.3509 17.7799 22.3509 17.7799C22.3509 17.7799 22.2789 18.0841 21.7505 18.044C21.2622 18.004 19.9893 17.5157 19.8773 17.5557C19.7652 17.5957 19.6131 17.6678 19.6131 17.6678C19.6131 17.6678 19.501 17.2515 19.3889 17.1795C19.2769 17.1074 18.9406 17.1394 18.9406 17.1394L18.036 16.467C18.036 16.467 17.7718 17.2915 18.6765 17.8919C19.541 18.4923 20.3256 18.1961 20.3256 18.1961C20.3256 18.1961 21.0781 18.9807 21.4863 19.1728C21.9026 19.3569 23.0234 19.9253 22.8713 19.9973C22.8312 20.0374 22.6871 20.0694 22.6071 20.0374C22.4229 19.9653 22.2708 19.7011 22.0067 19.6211C21.6304 19.509 21.2542 19.6611 21.2542 19.6611L20.9179 19.509L19.8692 19.549L19.493 19.8132L18.8205 19.6611C18.8205 19.6611 18.8606 20.1895 19.1968 20.4136C19.533 20.6378 19.8692 20.5657 19.8692 20.5657C19.8692 20.5657 21.3342 22.2148 22.3109 22.7031C23.2875 23.1514 24 23.3756 24 23.3756C24 23.3756 22.3509 23.0714 21.7105 22.7352C20.6217 22.1348 20.0614 21.6464 19.461 21.2302C18.8606 20.8139 17.6197 20.5897 17.6197 20.5897C17.6197 20.5897 17.6598 19.7652 17.5797 19.461C17.5077 19.1648 17.0514 18.8205 17.0514 18.8205C17.0514 18.8205 17.1234 18.4043 17.1234 18.2201C17.1234 18.036 16.9393 17.996 16.9393 17.996L16.8672 17.6197C16.8672 17.6197 16.3789 16.9073 16.3789 16.571C16.3789 16.2348 16.451 15.8586 16.451 15.8586C16.451 15.8586 16.563 15.3302 16.3789 15.3302C16.2508 15.3142 15.9466 15.3142 15.9466 15.3142Z" fill="black" fill-opacity="0.5"/>
<path d="M19.3249 6.004C19.3249 6.004 19.5891 6.04403 19.9253 6.26818C20.2615 6.49233 20.2615 6.86858 20.5977 6.86858C20.934 6.86858 21.5344 5.93195 21.7585 5.81988C22.0227 5.70781 22.1748 5.93195 22.1748 5.93195L22.9273 4.73115L22.511 4.50701C22.511 4.50701 21.9827 5.10741 21.7985 5.06738C21.5744 5.06738 21.3102 5.02735 21.3102 5.02735C21.3102 5.02735 20.8939 6.07605 20.6378 6.11608C20.3736 6.1561 20.5977 5.17945 20.7098 4.91528C20.8219 4.69113 21.5344 4.61107 21.5344 4.61107L22.2468 3.22615C22.2468 3.22615 22.0227 3.53035 21.8306 3.67445C21.6464 3.82655 20.7418 3.63442 20.5177 3.71448C20.3336 3.78652 19.9893 3.86658 19.9893 3.86658C19.9893 3.86658 19.9893 3.53035 20.1014 3.22615C20.2135 2.92195 20.6618 2.66578 20.7018 2.47365C20.7418 2.28152 20.7018 2.05737 20.8139 1.91328C20.966 1.8012 21.3743 1.31288 21.3743 1.31288C21.3743 1.31288 20.7018 1.61708 20.5497 1.8012C20.3976 1.98532 20.3256 2.44163 20.1735 2.73783C19.9893 3.07405 19.1248 3.41027 19.1248 3.41027C19.1248 3.41027 19.429 3.85857 19.501 4.0507C19.6131 4.23482 19.3489 4.46698 19.3489 4.46698C19.3489 4.46698 19.573 4.84323 19.6131 5.10741C19.6611 5.36358 19.3249 6.004 19.3249 6.004Z" fill="#BBDD00"/>
<path d="M19.3249 6.004C19.3249 6.004 19.5891 6.04403 19.9253 6.26818C20.2615 6.49233 20.2615 6.86858 20.5977 6.86858C20.934 6.86858 21.5344 5.93195 21.7585 5.81988C22.0227 5.70781 22.1748 5.93195 22.1748 5.93195L22.9273 4.73115L22.511 4.50701C22.511 4.50701 21.9827 5.10741 21.7985 5.06738C21.5744 5.06738 21.3102 5.02735 21.3102 5.02735C21.3102 5.02735 20.8939 6.07605 20.6378 6.11608C20.3736 6.1561 20.5977 5.17945 20.7098 4.91528C20.8219 4.69113 21.5344 4.61107 21.5344 4.61107L22.2468 3.22615C22.2468 3.22615 22.0227 3.53035 21.8306 3.67445C21.6464 3.82655 20.7418 3.63442 20.5177 3.71448C20.3336 3.78652 19.9893 3.86658 19.9893 3.86658C19.9893 3.86658 19.9893 3.53035 20.1014 3.22615C20.2135 2.92195 20.6618 2.66578 20.7018 2.47365C20.7418 2.28152 20.7018 2.05737 20.8139 1.91328C20.966 1.8012 21.3743 1.31288 21.3743 1.31288C21.3743 1.31288 20.7018 1.61708 20.5497 1.8012C20.3976 1.98532 20.3256 2.44163 20.1735 2.73783C19.9893 3.07405 19.1248 3.41027 19.1248 3.41027C19.1248 3.41027 19.429 3.85857 19.501 4.0507C19.6131 4.23482 19.3489 4.46698 19.3489 4.46698C19.3489 4.46698 19.573 4.84323 19.6131 5.10741C19.6611 5.36358 19.3249 6.004 19.3249 6.004Z" fill="black" fill-opacity="0.5"/>
<path d="M18.9486 5.89193L19.2528 5.33155L19.0607 4.87525L18.7645 3.86658V4.53903L18.5724 5.06738L18.9486 5.89193Z" fill="#BBDD00"/>
<path d="M18.9486 5.89193L19.2528 5.33155L19.0607 4.87525L18.7645 3.86658V4.53903L18.5724 5.06738L18.9486 5.89193Z" fill="black" fill-opacity="0.5"/>
<path d="M18.1961 3.33823L18.9166 1.9533L18.6845 2.06538L18.012 2.66578L18.1961 3.33823Z" fill="#BBDD00"/>
<path d="M18.1961 3.33823L18.9166 1.9533L18.6845 2.06538L18.012 2.66578L18.1961 3.33823Z" fill="black" fill-opacity="0.5"/>
<path d="M7.87725 17.2275C7.87725 17.2275 8.58973 17.4116 8.7018 17.5637C8.81388 17.7478 8.81388 18.4283 8.81388 18.4283C8.81388 18.4283 8.50967 18.5003 8.06137 18.8766C7.61308 19.2528 7.27685 19.517 7.27685 19.517C7.27685 19.517 7.12475 18.9887 7.23682 18.7645C7.3489 18.5404 7.46097 18.4283 7.46097 18.4283C7.46097 18.4283 7.30887 18.1641 7.42095 17.8679C7.50901 17.5637 7.87725 17.2275 7.87725 17.2275Z" fill="#BBDD00"/>
<path d="M7.87725 17.2275C7.87725 17.2275 8.58973 17.4116 8.7018 17.5637C8.81388 17.7478 8.81388 18.4283 8.81388 18.4283C8.81388 18.4283 8.50967 18.5003 8.06137 18.8766C7.61308 19.2528 7.27685 19.517 7.27685 19.517C7.27685 19.517 7.12475 18.9887 7.23682 18.7645C7.3489 18.5404 7.46097 18.4283 7.46097 18.4283C7.46097 18.4283 7.30887 18.1641 7.42095 17.8679C7.50901 17.5637 7.87725 17.2275 7.87725 17.2275Z" fill="black" fill-opacity="0.5"/>
<path d="M7.73316 20.6778C7.73316 20.6778 7.91728 20.7178 8.22148 21.054C8.51768 21.3903 8.48566 21.5023 8.48566 21.5023C8.48566 21.5023 7.9573 21.9506 7.58105 22.1027C7.2048 22.2548 7.0527 22.1748 6.75651 22.3669C6.46031 22.559 5.93195 23.0794 5.77985 22.8953C5.62775 22.6711 6.004 22.519 6.53236 21.9907C7.02068 21.4303 7.73316 20.6778 7.73316 20.6778Z" fill="#BBDD00"/>
<path d="M7.73316 20.6778C7.73316 20.6778 7.91728 20.7178 8.22148 21.054C8.51768 21.3903 8.48566 21.5023 8.48566 21.5023C8.48566 21.5023 7.9573 21.9506 7.58105 22.1027C7.2048 22.2548 7.0527 22.1748 6.75651 22.3669C6.46031 22.559 5.93195 23.0794 5.77985 22.8953C5.62775 22.6711 6.004 22.519 6.53236 21.9907C7.02068 21.4303 7.73316 20.6778 7.73316 20.6778Z" fill="black" fill-opacity="0.5"/>
<path d="M8.06938 15.3142C8.06938 15.3142 7.28486 13.9293 6.79653 13.7372C6.30821 13.553 5.59573 13.9613 5.52368 13.8492C5.45163 13.7372 5.78786 13.553 5.78786 13.553L5.22749 13.2488C5.22749 13.2488 5.18746 13.4009 4.92328 13.473C4.65911 13.545 3.94663 13.3609 3.94663 13.3609L4.99533 13.8492C4.99533 13.8492 4.43496 13.9613 4.09073 14.1855C3.7545 14.4096 3.53035 14.6338 3.53035 14.6338L2.92995 14.7458C2.92995 14.7458 2.96998 15.01 3.3062 15.01C3.64243 15.01 5.14743 14.8979 5.14743 14.8979C5.14743 14.8979 5.70781 15.2342 5.56371 15.3462C5.41161 15.4583 4.58706 15.3062 4.58706 15.3062L5.07538 15.6424L5.56371 15.8266C5.56371 15.8266 5.25951 16.1308 4.85123 16.2028C4.43496 16.2749 3.83456 16.0507 3.83456 16.0507C3.83456 16.0507 3.65043 16.3149 3.49833 16.499C3.34623 16.6831 1.62508 17.6998 1.62508 17.6998C1.62508 17.6998 1.69713 18.004 2.22548 17.964C2.75384 17.924 3.98666 17.4356 4.09873 17.4757C4.21081 17.5157 4.36291 17.5877 4.36291 17.5877C4.36291 17.5877 4.47498 17.1714 4.58706 17.0994C4.69913 17.0274 5.03536 17.0594 5.03536 17.0594L5.93996 16.3869C5.93996 16.3869 6.20414 17.2115 5.29953 17.8119C4.39493 18.4123 3.65043 18.1161 3.65043 18.1161C3.65043 18.1161 2.89793 18.9006 2.48966 19.0927C2.08139 19.2849 0.952635 19.8452 1.10474 19.9173C1.14476 19.9573 1.28886 19.9893 1.36891 19.9573C1.55304 19.8853 1.70514 19.6211 1.96931 19.541C2.34556 19.429 2.72181 19.5811 2.72181 19.5811L3.05804 19.429L4.10674 19.501L4.48299 19.7652L5.15544 19.6131C5.15544 19.6131 5.11541 20.1414 4.77919 20.3656C4.44296 20.5897 4.13876 20.5897 4.13876 20.5897C4.13876 20.5897 2.66578 22.2548 1.68913 22.7432C0.672448 23.1915 0 23.3756 0 23.3756C0 23.3756 1.6491 23.0714 2.28953 22.7352C3.37825 22.1348 3.93863 21.6464 4.53903 21.2302C5.13943 20.8139 6.38025 20.5897 6.38025 20.5897C6.38025 20.5897 6.34023 19.7652 6.42028 19.461C6.49233 19.1648 6.94863 18.8205 6.94863 18.8205C6.94863 18.8205 6.87659 18.4043 6.87659 18.2201C6.87659 18.036 7.06071 17.996 7.06071 17.996L7.13276 17.6197C7.13276 17.6197 7.62108 16.9073 7.62108 16.571C7.62108 16.2348 7.54903 15.8586 7.54903 15.8586C7.54903 15.8586 7.43696 15.3302 7.62108 15.3302C7.8052 15.3302 8.06938 15.3142 8.06938 15.3142Z" fill="#BBDD00"/>
<path d="M8.06938 15.3142C8.06938 15.3142 7.28486 13.9293 6.79653 13.7372C6.30821 13.553 5.59573 13.9613 5.52368 13.8492C5.45163 13.7372 5.78786 13.553 5.78786 13.553L5.22749 13.2488C5.22749 13.2488 5.18746 13.4009 4.92328 13.473C4.65911 13.545 3.94663 13.3609 3.94663 13.3609L4.99533 13.8492C4.99533 13.8492 4.43496 13.9613 4.09073 14.1855C3.7545 14.4096 3.53035 14.6338 3.53035 14.6338L2.92995 14.7458C2.92995 14.7458 2.96998 15.01 3.3062 15.01C3.64243 15.01 5.14743 14.8979 5.14743 14.8979C5.14743 14.8979 5.70781 15.2342 5.56371 15.3462C5.41161 15.4583 4.58706 15.3062 4.58706 15.3062L5.07538 15.6424L5.56371 15.8266C5.56371 15.8266 5.25951 16.1308 4.85123 16.2028C4.43496 16.2749 3.83456 16.0507 3.83456 16.0507C3.83456 16.0507 3.65043 16.3149 3.49833 16.499C3.34623 16.6831 1.62508 17.6998 1.62508 17.6998C1.62508 17.6998 1.69713 18.004 2.22548 17.964C2.75384 17.924 3.98666 17.4356 4.09873 17.4757C4.21081 17.5157 4.36291 17.5877 4.36291 17.5877C4.36291 17.5877 4.47498 17.1714 4.58706 17.0994C4.69913 17.0274 5.03536 17.0594 5.03536 17.0594L5.93996 16.3869C5.93996 16.3869 6.20414 17.2115 5.29953 17.8119C4.39493 18.4123 3.65043 18.1161 3.65043 18.1161C3.65043 18.1161 2.89793 18.9006 2.48966 19.0927C2.08139 19.2849 0.952635 19.8452 1.10474 19.9173C1.14476 19.9573 1.28886 19.9893 1.36891 19.9573C1.55304 19.8853 1.70514 19.6211 1.96931 19.541C2.34556 19.429 2.72181 19.5811 2.72181 19.5811L3.05804 19.429L4.10674 19.501L4.48299 19.7652L5.15544 19.6131C5.15544 19.6131 5.11541 20.1414 4.77919 20.3656C4.44296 20.5897 4.13876 20.5897 4.13876 20.5897C4.13876 20.5897 2.66578 22.2548 1.68913 22.7432C0.672448 23.1915 0 23.3756 0 23.3756C0 23.3756 1.6491 23.0714 2.28953 22.7352C3.37825 22.1348 3.93863 21.6464 4.53903 21.2302C5.13943 20.8139 6.38025 20.5897 6.38025 20.5897C6.38025 20.5897 6.34023 19.7652 6.42028 19.461C6.49233 19.1648 6.94863 18.8205 6.94863 18.8205C6.94863 18.8205 6.87659 18.4043 6.87659 18.2201C6.87659 18.036 7.06071 17.996 7.06071 17.996L7.13276 17.6197C7.13276 17.6197 7.62108 16.9073 7.62108 16.571C7.62108 16.2348 7.54903 15.8586 7.54903 15.8586C7.54903 15.8586 7.43696 15.3302 7.62108 15.3302C7.8052 15.3302 8.06938 15.3142 8.06938 15.3142Z" fill="black" fill-opacity="0.5"/>
<path d="M4.69113 6.004C4.69113 6.004 4.42695 6.04403 4.09073 6.26818C3.7545 6.49233 3.7545 6.86858 3.41828 6.86858C3.08206 6.86858 2.47365 5.93195 2.2495 5.81988C1.98532 5.70781 1.83322 5.93195 1.83322 5.93195L1.08072 4.73115L1.497 4.50701C1.497 4.50701 2.02535 5.10741 2.20947 5.06738C2.43362 5.06738 2.6978 5.02735 2.6978 5.02735C2.6978 5.02735 3.11408 6.07605 3.37025 6.11608C3.63442 6.1561 3.41027 5.17945 3.2982 4.91528C3.18612 4.69113 2.47365 4.61107 2.47365 4.61107L1.76117 3.22615C1.76117 3.22615 1.98532 3.53035 2.17745 3.67445C2.36157 3.82655 3.26618 3.63442 3.49033 3.71448C3.67445 3.78652 4.01868 3.86658 4.01868 3.86658C4.01868 3.86658 4.01868 3.53035 3.9066 3.22615C3.79453 2.92195 3.34623 2.66578 3.3062 2.47365C3.26618 2.28953 3.3062 2.05737 3.19413 1.91328C3.08206 1.76117 2.63376 1.31288 2.63376 1.31288C2.63376 1.31288 3.3062 1.61708 3.45831 1.8012C3.64243 2.02535 3.68246 2.44163 3.83456 2.73783C4.01868 3.07405 4.88326 3.41027 4.88326 3.41027C4.88326 3.41027 4.57905 3.85857 4.507 4.0507C4.39493 4.23482 4.65911 4.46698 4.65911 4.46698C4.65911 4.46698 4.43496 4.84323 4.39493 5.10741C4.38693 5.44363 4.69113 6.004 4.69113 6.004Z" fill="#BBDD00"/>
<path d="M4.69113 6.004C4.69113 6.004 4.42695 6.04403 4.09073 6.26818C3.7545 6.49233 3.7545 6.86858 3.41828 6.86858C3.08206 6.86858 2.47365 5.93195 2.2495 5.81988C1.98532 5.70781 1.83322 5.93195 1.83322 5.93195L1.08072 4.73115L1.497 4.50701C1.497 4.50701 2.02535 5.10741 2.20947 5.06738C2.43362 5.06738 2.6978 5.02735 2.6978 5.02735C2.6978 5.02735 3.11408 6.07605 3.37025 6.11608C3.63442 6.1561 3.41027 5.17945 3.2982 4.91528C3.18612 4.69113 2.47365 4.61107 2.47365 4.61107L1.76117 3.22615C1.76117 3.22615 1.98532 3.53035 2.17745 3.67445C2.36157 3.82655 3.26618 3.63442 3.49033 3.71448C3.67445 3.78652 4.01868 3.86658 4.01868 3.86658C4.01868 3.86658 4.01868 3.53035 3.9066 3.22615C3.79453 2.92195 3.34623 2.66578 3.3062 2.47365C3.26618 2.28953 3.3062 2.05737 3.19413 1.91328C3.08206 1.76117 2.63376 1.31288 2.63376 1.31288C2.63376 1.31288 3.3062 1.61708 3.45831 1.8012C3.64243 2.02535 3.68246 2.44163 3.83456 2.73783C4.01868 3.07405 4.88326 3.41027 4.88326 3.41027C4.88326 3.41027 4.57905 3.85857 4.507 4.0507C4.39493 4.23482 4.65911 4.46698 4.65911 4.46698C4.65911 4.46698 4.43496 4.84323 4.39493 5.10741C4.38693 5.44363 4.69113 6.004 4.69113 6.004Z" fill="black" fill-opacity="0.5"/>
<path fill-rule="evenodd" clip-rule="evenodd" d="M12.008 8.51768H12.032V8.51776C12.0167 8.51768 12.008 8.51768 12.008 8.51768ZM12 8.51768C11.9334 8.51789 11.4715 8.52059 11.3676 8.55771C11.3218 8.57406 11.2827 8.63321 11.2366 8.7029C11.1699 8.80373 11.0886 8.92665 10.9513 8.97398C10.8839 9.00034 10.4844 9.02242 10.0063 9.04883C9.17768 9.09461 8.11312 9.15342 8.13342 9.27018C8.13342 9.39106 8.21278 9.44983 8.27862 9.49859C8.31307 9.52411 8.34382 9.54688 8.35757 9.57438C8.36825 9.60428 8.36526 9.63702 8.36227 9.66972C8.35405 9.75963 8.34586 9.84924 8.62175 9.87859C8.998 9.95063 9.07005 9.61441 9.07005 9.61441C9.07005 9.61441 9.78252 9.50234 10.3109 9.65444C10.5158 9.71034 10.6726 9.88189 10.8223 10.0457C10.8656 10.093 10.9082 10.1397 10.9513 10.1828C11.0425 10.274 11.1259 10.3397 11.1917 10.3915C11.2586 10.4443 11.3074 10.4827 11.3276 10.519C11.3996 10.7031 11.3676 10.9673 11.2875 11.0073C11.2214 11.0073 11.1163 10.8765 11.0183 10.7543C10.9501 10.6694 10.8852 10.5886 10.8392 10.559C10.7992 10.519 10.503 10.447 10.1268 10.4069C10.0504 10.3868 9.97397 10.397 9.8986 10.4071C9.82389 10.417 9.75018 10.4269 9.67845 10.4069C9.4485 10.3767 9.24599 10.3053 9.06401 10.2411C9.00526 10.2203 8.94864 10.2004 8.89393 10.1828C8.76372 10.1502 8.63958 10.1211 8.52898 10.0951C8.2588 10.0316 8.06938 9.98704 8.06938 9.95864C7.99733 9.88659 8.02935 9.62242 8.02935 9.62242C8.02935 9.62242 7.87725 9.55037 7.87725 9.47031C7.87725 9.37094 7.9339 9.32821 7.97464 9.29748C7.97985 9.29355 7.98479 9.28982 7.98933 9.28619C8.0043 9.27122 8.00807 9.2148 8.01279 9.14418C8.02069 9.026 8.03125 8.86802 8.1014 8.79787C8.15647 8.7428 8.60195 8.6684 9.04943 8.59367C9.51266 8.51631 9.97803 8.43859 10.0147 8.38159C10.0464 8.33227 10.0285 8.28294 10.0046 8.21725C9.97428 8.13366 9.93431 8.02356 9.97465 7.85324C10.0467 7.54903 10.1268 6.83656 10.1268 6.83656C10.1268 6.83656 10.1268 5.74783 10.1668 5.59573C10.1908 5.50461 10.2004 5.49681 10.2197 5.48111C10.2327 5.47059 10.25 5.45654 10.2789 5.41161C10.3509 5.29953 10.3909 4.54703 10.3909 4.54703C10.3909 4.54703 10.2388 4.50701 10.1268 4.43496C10.0147 4.36291 9.9026 3.98666 9.9026 3.98666C9.9026 3.98666 9.56638 3.94663 9.52635 3.91461C9.48633 3.87458 9.4543 3.65043 9.4543 3.57839C9.4543 3.52662 9.46968 3.49022 9.48622 3.45105C9.50549 3.40542 9.52635 3.35603 9.52635 3.27418C9.52635 3.17365 9.50887 2.99269 9.49701 2.86998C9.49093 2.80703 9.48633 2.7594 9.48633 2.74583C9.47138 2.74583 9.48322 2.74025 9.506 2.72951C9.54424 2.71148 9.61334 2.67891 9.63843 2.63376C9.67845 2.56171 9.7505 2.44963 9.7505 2.44963C9.7505 2.44963 9.33422 2.75384 9.19013 2.52168C9.04603 2.28953 9.11808 1.96131 9.11808 1.96131C9.11808 1.96131 9.38226 1.47298 9.38226 1.36091C9.38226 1.24883 9.27018 0.760507 9.27018 0.760507L9.15811 0.640427C9.15811 0.640427 9.34223 0.376251 9.34223 0.304203C9.38226 0.232155 9.27018 0.00800534 9.15811 0.00800534C9.08606 0.00800534 9.006 0.312208 9.006 0.312208C9.006 0.312208 8.96598 0.560374 8.93396 0.784523C8.89393 1.00867 8.51768 1.60907 8.51768 1.60907C8.51768 1.60907 8.62975 2.2495 8.51768 2.36157C8.46197 2.41729 8.39637 2.37211 8.33562 2.33029C8.27417 2.28797 8.21769 2.24908 8.18145 2.32155C8.14856 2.391 8.16907 2.4204 8.19727 2.4608C8.23082 2.50887 8.27525 2.57253 8.2535 2.73783C8.21348 3.04203 8.02935 3.002 8.02935 3.002C8.02935 3.002 8.06938 3.33823 8.06938 3.56238C8.06938 3.78652 7.88526 3.93863 7.88526 3.93863C7.88526 3.93863 8.63776 4.53903 8.48566 4.72315C8.33356 4.90727 8.03736 4.90727 7.84523 4.7952C7.66111 4.72315 7.31688 4.3469 7.31688 4.3469C7.31688 4.3469 7.16478 4.499 7.2048 4.53102C7.24483 4.57105 7.3569 4.68312 7.27685 4.86725C7.2048 5.05137 6.94063 5.09139 6.94063 5.09139C6.94063 5.09139 7.0527 5.46765 7.12475 5.53969C7.1968 5.61174 7.38893 5.57972 7.38893 5.57972C7.38893 5.57972 7.501 5.69179 7.57305 5.73182C7.6451 5.77185 7.90927 5.80387 7.90927 5.80387L7.84523 6.04403C7.84523 6.04403 8.22148 6.22815 8.02935 6.34823C7.69313 6.57238 7.31688 6.19613 7.31688 6.19613C7.31688 6.19613 7.2048 6.26818 7.09273 6.23616C6.98065 6.19613 6.98065 6.08406 6.98065 6.08406H6.75651C6.75651 6.08406 6.94063 6.53236 6.86858 6.61241C6.83807 6.65987 6.74582 6.63411 6.65264 6.6081C6.52579 6.57268 6.3972 6.53677 6.42028 6.68446C6.45607 6.79579 6.65973 6.84195 6.88314 6.89259C7.10952 6.94389 7.35617 6.9998 7.46898 7.13276C7.69313 7.39693 7.50901 7.66111 7.39693 7.66111C7.35797 7.67502 7.16905 7.598 6.93444 7.50234C6.49417 7.32283 5.89299 7.07771 5.81988 7.24483C5.73744 7.38801 5.83373 7.50768 5.92647 7.62294C6.00485 7.72035 6.08069 7.81462 6.04403 7.91728C6.00983 8.02369 5.86376 7.98757 5.71975 7.95196C5.56042 7.91255 5.4036 7.87377 5.4036 8.02935C5.4036 8.15539 5.57489 8.29783 5.74184 8.43667C5.92484 8.58884 6.10263 8.73669 6.04403 8.8539C5.93195 9.07805 5.73983 8.92595 5.73983 8.92595C5.73983 8.92595 5.4036 9.07805 5.36358 9.1501C5.32355 9.22215 5.73983 9.3022 5.73983 9.3022L5.77985 9.4543L5.44363 9.49433C5.44363 9.49433 5.17945 9.79053 5.13943 9.91061C5.11888 9.96814 5.39574 10.0552 5.67009 10.1415C5.93023 10.2233 6.18813 10.3044 6.18813 10.3589C6.22815 10.471 6.1481 10.511 6.1481 10.511C6.1481 10.511 6.41228 10.471 6.52435 10.511C6.63642 10.551 6.97265 10.8072 6.97265 10.8072C6.97265 10.8072 7.57305 10.6551 7.7972 10.6951C8.02135 10.7352 8.3976 10.8793 8.3976 10.8793L8.0934 10.9513L8.3976 11.2555C8.3976 11.2555 7.9493 11.4076 7.6451 11.3676C7.41985 11.3379 7.05415 11.124 6.81774 10.9856C6.73488 10.9371 6.6679 10.898 6.62842 10.8793C6.47632 10.8072 5.95597 10.8392 5.95597 10.8392C5.95597 10.8392 5.09139 10.2388 4.90727 10.3909C4.77979 10.5184 4.84803 10.8109 4.90208 11.0426C4.92609 11.1455 4.9473 11.2364 4.9473 11.2955C4.9473 11.4877 4.87525 11.936 4.87525 11.936C4.87525 11.936 6.11608 11.936 6.4523 12.048C6.78853 12.1601 6.98065 12.2722 6.98065 12.2722H7.3569L7.46898 12.6084C7.46898 12.6084 8.62975 12.6084 8.59773 12.6805C8.59773 12.7165 8.51336 12.7346 8.42412 12.7536C8.3352 12.7726 8.24146 12.7926 8.22148 12.8326C8.14943 12.9046 8.22148 13.0167 8.22148 13.0167H8.63776L9.54236 13.2008L8.18946 13.3129C8.18946 13.3129 8.22949 13.8733 8.34156 13.9533C8.45364 14.0254 8.71781 13.9933 8.78986 13.9133C8.94196 13.9533 9.01401 13.8733 9.01401 13.8733C9.01401 13.8733 10.0307 14.5137 10.0627 14.7779C10.0823 14.9074 9.98265 14.9003 9.84574 14.8905C9.7034 14.8804 9.52083 14.8673 9.39026 15.002C9.27819 15.1541 9.35023 15.3062 9.43029 15.4183C9.44637 15.4633 9.44953 15.4967 9.45223 15.5252C9.45624 15.5677 9.45923 15.5993 9.50234 15.6424C9.54718 15.7161 9.67019 15.7667 9.79447 15.8178C9.9808 15.8945 10.17 15.9723 10.1027 16.1308C9.94108 16.2924 9.83638 16.2143 9.74461 16.1458C9.68641 16.1023 9.63341 16.0628 9.57438 16.0907C9.42228 16.1628 9.61441 16.8032 9.61441 16.8032C9.61441 16.8032 10.6631 17.1074 10.519 17.3636C10.4377 17.5049 10.3151 17.4423 10.1843 17.3757C10.0707 17.3177 9.95082 17.2565 9.84657 17.3235C9.62242 17.4356 9.77452 18.1081 9.77452 18.1081C9.77452 18.1081 10.1908 18.068 10.1908 18.2201C10.1908 18.2921 10.0905 18.2799 9.98063 18.2665C9.85811 18.2516 9.72357 18.2352 9.70247 18.3322C9.63042 18.4843 9.85457 18.5564 9.85457 18.5564C9.85457 18.5564 9.85457 19.2288 9.81454 19.3089C9.77452 19.3809 9.59039 19.3809 9.59039 19.3809C9.59039 19.3809 9.70247 19.6451 10.0067 19.8292C10.1529 19.9134 10.2525 19.848 10.3381 19.7918C10.4072 19.7465 10.4671 19.7071 10.535 19.7572C10.6871 19.8692 10.2708 20.1735 10.2708 20.1735C10.2708 20.1735 10.4229 20.3976 10.495 20.7739C10.567 21.1501 10.567 21.7105 10.567 21.7105C10.567 21.7105 10.9833 22.0467 11.0954 22.3509C11.1416 22.4763 11.2 22.6765 11.2584 22.8764C11.3416 23.1614 11.4246 23.4458 11.4716 23.5117C11.5325 23.6063 11.8902 23.8894 12 23.9751V24L12.0154 23.9871C12.0261 23.9954 12.032 24 12.032 24V23.973C12.1366 23.8849 12.4665 23.6056 12.5604 23.5117C12.6016 23.4476 12.682 23.1767 12.7643 22.8996L12.7644 22.8996L12.7644 22.8995C12.826 22.692 12.8887 22.4811 12.9366 22.3509C13.0487 22.0467 13.465 21.7105 13.465 21.7105C13.465 21.7105 13.465 21.1501 13.537 20.7739C13.6091 20.3976 13.7612 20.1735 13.7612 20.1735C13.7612 20.1735 13.3449 19.8692 13.497 19.7572C13.5649 19.7071 13.6249 19.7465 13.6939 19.7918C13.7795 19.848 13.8791 19.9134 14.0254 19.8292C14.3296 19.6451 14.4416 19.3809 14.4416 19.3809C14.4416 19.3809 14.2575 19.3809 14.2175 19.3089C14.1775 19.2288 14.1775 18.5564 14.1775 18.5564C14.1775 18.5564 14.3696 18.5163 14.3296 18.3322C14.3085 18.2352 14.1739 18.2516 14.0514 18.2665C13.9415 18.2799 13.8412 18.2921 13.8412 18.2201C13.8412 18.068 14.2575 18.1081 14.2575 18.1081C14.2575 18.1081 14.4096 17.4356 14.1855 17.3235C14.0804 17.256 13.9577 17.3169 13.8421 17.3743C13.7112 17.4392 13.5895 17.4996 13.513 17.3636C13.3689 17.1074 14.4176 16.8032 14.4176 16.8032C14.4176 16.8032 14.6097 16.1628 14.4576 16.0907C14.3986 16.0628 14.3456 16.1023 14.2874 16.1458C14.1956 16.2143 14.0909 16.2924 13.9293 16.1308C13.8621 15.9723 14.0512 15.8945 14.2376 15.8178C14.3618 15.7667 14.4848 15.7161 14.5297 15.6424C14.5728 15.5993 14.5758 15.5677 14.5798 15.5252C14.5825 15.4967 14.5857 15.4633 14.6017 15.4183C14.6818 15.3062 14.7538 15.1541 14.6418 15.002C14.5071 14.8631 14.317 14.8703 14.1729 14.8757C14.0429 14.8806 13.9503 14.8841 13.9693 14.7779C14.0013 14.5137 15.018 13.8733 15.018 13.8733C15.018 13.8733 15.1301 13.9453 15.2021 14.0254C15.2742 14.1054 15.5384 14.1454 15.6504 14.0654C15.7625 13.9853 15.8025 13.425 15.8025 13.425L14.4496 13.3129L15.3542 13.1288H15.7705C15.7705 13.1288 15.8426 13.0167 15.7705 12.9446C15.7499 12.9034 15.6614 12.8834 15.5749 12.8639C15.4934 12.8455 15.4137 12.8275 15.3943 12.7925C15.3622 12.7205 16.523 12.7205 16.523 12.7205L16.6351 12.3042H17.0113C17.0113 12.3042 17.2355 12.1521 17.5397 12.0801C17.8759 11.968 19.1167 11.968 19.1167 11.968C19.1167 11.968 19.0447 11.5197 19.0447 11.3276C19.0447 11.2685 19.0659 11.1775 19.0899 11.0746C19.144 10.8429 19.2122 10.5504 19.0847 10.4229C18.9006 10.2708 18.036 10.8712 18.036 10.8712C18.036 10.8712 17.5157 10.8712 17.3636 10.9113C17.3241 10.93 17.2571 10.9692 17.1743 11.0177C16.9379 11.156 16.5721 11.37 16.3469 11.3996C16.0427 11.4396 15.5944 11.2875 15.5944 11.2875L15.8986 10.9833L15.5944 10.9113C15.5944 10.9113 15.9706 10.7672 16.1948 10.7272C16.4189 10.6871 17.0193 10.8392 17.0193 10.8392C17.0193 10.8392 17.3556 10.5831 17.4676 10.543C17.5797 10.503 17.8439 10.543 17.8439 10.543C17.8439 10.543 17.7638 10.503 17.8039 10.3909C17.8039 10.3349 18.066 10.2508 18.3282 10.1668C18.5904 10.0827 18.8526 9.99867 18.8526 9.94263C18.8125 9.82255 18.5484 9.52635 18.5484 9.52635L18.2121 9.48633L18.2522 9.33422C18.2522 9.33422 18.6684 9.25417 18.6284 9.18212C18.5884 9.11007 18.2522 8.95797 18.2522 8.95797C18.2522 8.95797 18.06 9.11007 17.948 8.88592C17.8894 8.76871 18.0672 8.62086 18.2502 8.46869C18.4171 8.32985 18.5884 8.18741 18.5884 8.06137C18.5884 7.90579 18.4316 7.94457 18.2722 7.98398C18.1282 8.01959 17.9822 8.05571 17.948 7.9493C17.9113 7.84664 17.9871 7.75237 18.0655 7.65497C18.1583 7.5397 18.2546 7.42003 18.1721 7.27685C18.099 7.10974 17.4978 7.35485 17.0576 7.53436C16.8229 7.63002 16.634 7.70704 16.5951 7.69313C16.483 7.69313 16.2989 7.42895 16.523 7.16478C16.6358 7.03182 16.8825 6.97592 17.1089 6.92461C17.3323 6.87397 17.5359 6.82781 17.5717 6.71648C17.5948 6.56879 17.4662 6.6047 17.3394 6.64012C17.2462 6.66614 17.1539 6.69189 17.1234 6.64443C17.0514 6.56438 17.2355 6.11608 17.2355 6.11608H17.0113C17.0113 6.11608 17.0113 6.22815 16.8993 6.26818C16.7872 6.3002 16.6751 6.22815 16.6751 6.22815C16.6751 6.22815 16.2989 6.6044 15.9626 6.38025C15.7705 6.26017 16.1468 6.07605 16.1468 6.07605L16.0747 5.8519C16.0747 5.8519 16.3389 5.81988 16.4109 5.77985C16.483 5.73983 16.5951 5.62775 16.5951 5.62775C16.5951 5.62775 16.7872 5.65977 16.8592 5.58773C16.9313 5.51568 17.0434 5.13943 17.0434 5.13943C17.0434 5.13943 16.7872 5.0994 16.7071 4.91528C16.6271 4.73115 16.7392 4.61908 16.7792 4.57905C16.8192 4.54703 16.6671 4.39493 16.6671 4.39493C16.6671 4.39493 16.3229 4.77118 16.1388 4.84323C15.9466 4.9553 15.6504 4.9553 15.4983 4.77118C15.3462 4.58706 16.0987 3.98666 16.0987 3.98666C16.0987 3.98666 15.9867 3.79453 15.9466 3.57038C15.9466 3.34623 15.9867 3.01001 15.9867 3.01001C15.9867 3.01001 15.8025 3.05003 15.7625 2.74583C15.7408 2.58054 15.7852 2.51688 15.8187 2.4688C15.8469 2.4284 15.8675 2.39901 15.8346 2.32955C15.7983 2.25709 15.7418 2.29598 15.6804 2.33829C15.6196 2.38012 15.554 2.42529 15.4983 2.36958C15.3863 2.25751 15.4983 1.61708 15.4983 1.61708C15.4983 1.61708 15.1221 1.01668 15.0821 0.792528C15.05 0.568379 15.01 0.304203 15.01 0.304203C15.01 0.304203 14.97 0 14.8579 0C14.7458 0 14.6338 0.232155 14.6338 0.304203C14.6338 0.376251 14.8179 0.640427 14.8179 0.640427L14.7058 0.752502C14.7058 0.752502 14.6338 1.24083 14.6338 1.3529C14.6338 1.46498 14.8979 1.9533 14.8979 1.9533C14.8979 1.9533 14.97 2.28152 14.8259 2.51368C14.6818 2.74583 14.2655 2.44163 14.2655 2.44163C14.2655 2.44163 14.3776 2.63376 14.4176 2.7058C14.4427 2.75096 14.5118 2.78353 14.55 2.80156C14.5728 2.8123 14.5847 2.81788 14.5697 2.81788C14.5697 2.83142 14.5651 2.87888 14.5591 2.94164L14.559 2.94195L14.559 2.94204C14.5472 3.06475 14.5297 3.24572 14.5297 3.34623C14.5297 3.42808 14.5505 3.47747 14.5698 3.5231C14.5864 3.56227 14.6017 3.59867 14.6017 3.65043C14.6017 3.72248 14.5697 3.94663 14.5297 3.98666C14.4897 4.01868 14.1534 4.05871 14.1534 4.05871C14.1534 4.05871 14.0414 4.43496 13.9293 4.507C13.8092 4.58706 13.6251 4.54703 13.6251 4.54703C13.6251 4.54703 13.6651 5.29953 13.7372 5.41161C13.766 5.45654 13.7834 5.47059 13.7963 5.4811C13.8156 5.49681 13.8253 5.50461 13.8492 5.59573C13.8893 5.74783 13.8893 6.83656 13.8893 6.83656C13.8893 6.83656 13.9693 7.54903 14.0414 7.85324C14.0817 8.02356 14.0417 8.13366 14.0114 8.21725C13.9875 8.28294 13.9696 8.33227 14.0013 8.38159C14.038 8.43859 14.5034 8.51631 14.9666 8.59367C15.4141 8.6684 15.8595 8.7428 15.9146 8.79787C15.9848 8.86802 15.9953 9.02599 16.0032 9.14417C16.0079 9.2148 16.0117 9.27122 16.0267 9.28619C16.0667 9.31821 16.1388 9.39026 16.1388 9.47031C16.1388 9.55037 15.9867 9.62242 15.9867 9.62242C15.9867 9.62242 16.0187 9.88659 15.9466 9.95864C15.9466 9.98704 15.7572 10.0316 15.487 10.0951C15.3764 10.1211 15.2523 10.1502 15.1221 10.1828C15.0674 10.2004 15.0108 10.2203 14.952 10.2411C14.77 10.3053 14.5675 10.3767 14.3376 10.4069C14.2658 10.4269 14.1921 10.417 14.1174 10.4071C14.042 10.397 13.9657 10.3868 13.8893 10.4069C13.513 10.447 13.2168 10.519 13.1768 10.559C13.1301 10.5891 13.057 10.6789 12.9823 10.7705C12.8779 10.8988 12.7705 11.0307 12.7285 11.0073C12.6484 10.9673 12.6164 10.7031 12.6885 10.519C12.7087 10.4827 12.7574 10.4443 12.8244 10.3915C12.8901 10.3397 12.9735 10.274 13.0647 10.1828C13.1078 10.1397 13.1504 10.0931 13.1937 10.0457C13.3434 9.88191 13.5002 9.71034 13.7051 9.65444C14.2335 9.50234 14.946 9.61441 14.946 9.61441C14.946 9.61441 15.018 9.95063 15.3943 9.87859C15.6702 9.84924 15.662 9.75963 15.6537 9.66972C15.6508 9.63702 15.6478 9.60428 15.6584 9.57438C15.6722 9.54688 15.7029 9.52411 15.7374 9.49859C15.8032 9.44983 15.8826 9.39106 15.8826 9.27018C15.9029 9.15342 14.8383 9.09461 14.0097 9.04883C13.5316 9.02242 13.1321 9.00034 13.0647 8.97398C12.9274 8.92665 12.8461 8.80373 12.7794 8.7029C12.7334 8.63321 12.6942 8.57406 12.6484 8.55771C12.5507 8.52281 12.1365 8.51834 12.032 8.51776V23.973L12.0154 23.9871C12.0127 23.985 12.0098 23.9827 12.0065 23.9802L12 23.9751V8.51768Z" fill="#BBDD00"/>
<path fill-rule="evenodd" clip-rule="evenodd" d="M12.008 8.51768H12.032V8.51776C12.0167 8.51768 12.008 8.51768 12.008 8.51768ZM12 8.51768C11.9334 8.51789 11.4715 8.52059 11.3676 8.55771C11.3218 8.57406 11.2827 8.63321 11.2366 8.7029C11.1699 8.80373 11.0886 8.92665 10.9513 8.97398C10.8839 9.00034 10.4844 9.02242 10.0063 9.04883C9.17768 9.09461 8.11312 9.15342 8.13342 9.27018C8.13342 9.39106 8.21278 9.44983 8.27862 9.49859C8.31307 9.52411 8.34382 9.54688 8.35757 9.57438C8.36825 9.60428 8.36526 9.63702 8.36227 9.66972C8.35405 9.75963 8.34586 9.84924 8.62175 9.87859C8.998 9.95063 9.07005 9.61441 9.07005 9.61441C9.07005 9.61441 9.78252 9.50234 10.3109 9.65444C10.5158 9.71034 10.6726 9.88189 10.8223 10.0457C10.8656 10.093 10.9082 10.1397 10.9513 10.1828C11.0425 10.274 11.1259 10.3397 11.1917 10.3915C11.2586 10.4443 11.3074 10.4827 11.3276 10.519C11.3996 10.7031 11.3676 10.9673 11.2875 11.0073C11.2214 11.0073 11.1163 10.8765 11.0183 10.7543C10.9501 10.6694 10.8852 10.5886 10.8392 10.559C10.7992 10.519 10.503 10.447 10.1268 10.4069C10.0504 10.3868 9.97397 10.397 9.8986 10.4071C9.82389 10.417 9.75018 10.4269 9.67845 10.4069C9.4485 10.3767 9.24599 10.3053 9.06401 10.2411C9.00526 10.2203 8.94864 10.2004 8.89393 10.1828C8.76372 10.1502 8.63958 10.1211 8.52898 10.0951C8.2588 10.0316 8.06938 9.98704 8.06938 9.95864C7.99733 9.88659 8.02935 9.62242 8.02935 9.62242C8.02935 9.62242 7.87725 9.55037 7.87725 9.47031C7.87725 9.37094 7.9339 9.32821 7.97464 9.29748C7.97985 9.29355 7.98479 9.28982 7.98933 9.28619C8.0043 9.27122 8.00807 9.2148 8.01279 9.14418C8.02069 9.026 8.03125 8.86802 8.1014 8.79787C8.15647 8.7428 8.60195 8.6684 9.04943 8.59367C9.51266 8.51631 9.97803 8.43859 10.0147 8.38159C10.0464 8.33227 10.0285 8.28294 10.0046 8.21725C9.97428 8.13366 9.93431 8.02356 9.97465 7.85324C10.0467 7.54903 10.1268 6.83656 10.1268 6.83656C10.1268 6.83656 10.1268 5.74783 10.1668 5.59573C10.1908 5.50461 10.2004 5.49681 10.2197 5.48111C10.2327 5.47059 10.25 5.45654 10.2789 5.41161C10.3509 5.29953 10.3909 4.54703 10.3909 4.54703C10.3909 4.54703 10.2388 4.50701 10.1268 4.43496C10.0147 4.36291 9.9026 3.98666 9.9026 3.98666C9.9026 3.98666 9.56638 3.94663 9.52635 3.91461C9.48633 3.87458 9.4543 3.65043 9.4543 3.57839C9.4543 3.52662 9.46968 3.49022 9.48622 3.45105C9.50549 3.40542 9.52635 3.35603 9.52635 3.27418C9.52635 3.17365 9.50887 2.99269 9.49701 2.86998C9.49093 2.80703 9.48633 2.7594 9.48633 2.74583C9.47138 2.74583 9.48322 2.74025 9.506 2.72951C9.54424 2.71148 9.61334 2.67891 9.63843 2.63376C9.67845 2.56171 9.7505 2.44963 9.7505 2.44963C9.7505 2.44963 9.33422 2.75384 9.19013 2.52168C9.04603 2.28953 9.11808 1.96131 9.11808 1.96131C9.11808 1.96131 9.38226 1.47298 9.38226 1.36091C9.38226 1.24883 9.27018 0.760507 9.27018 0.760507L9.15811 0.640427C9.15811 0.640427 9.34223 0.376251 9.34223 0.304203C9.38226 0.232155 9.27018 0.00800534 9.15811 0.00800534C9.08606 0.00800534 9.006 0.312208 9.006 0.312208C9.006 0.312208 8.96598 0.560374 8.93396 0.784523C8.89393 1.00867 8.51768 1.60907 8.51768 1.60907C8.51768 1.60907 8.62975 2.2495 8.51768 2.36157C8.46197 2.41729 8.39637 2.37211 8.33562 2.33029C8.27417 2.28797 8.21769 2.24908 8.18145 2.32155C8.14856 2.391 8.16907 2.4204 8.19727 2.4608C8.23082 2.50887 8.27525 2.57253 8.2535 2.73783C8.21348 3.04203 8.02935 3.002 8.02935 3.002C8.02935 3.002 8.06938 3.33823 8.06938 3.56238C8.06938 3.78652 7.88526 3.93863 7.88526 3.93863C7.88526 3.93863 8.63776 4.53903 8.48566 4.72315C8.33356 4.90727 8.03736 4.90727 7.84523 4.7952C7.66111 4.72315 7.31688 4.3469 7.31688 4.3469C7.31688 4.3469 7.16478 4.499 7.2048 4.53102C7.24483 4.57105 7.3569 4.68312 7.27685 4.86725C7.2048 5.05137 6.94063 5.09139 6.94063 5.09139C6.94063 5.09139 7.0527 5.46765 7.12475 5.53969C7.1968 5.61174 7.38893 5.57972 7.38893 5.57972C7.38893 5.57972 7.501 5.69179 7.57305 5.73182C7.6451 5.77185 7.90927 5.80387 7.90927 5.80387L7.84523 6.04403C7.84523 6.04403 8.22148 6.22815 8.02935 6.34823C7.69313 6.57238 7.31688 6.19613 7.31688 6.19613C7.31688 6.19613 7.2048 6.26818 7.09273 6.23616C6.98065 6.19613 6.98065 6.08406 6.98065 6.08406H6.75651C6.75651 6.08406 6.94063 6.53236 6.86858 6.61241C6.83807 6.65987 6.74582 6.63411 6.65264 6.6081C6.52579 6.57268 6.3972 6.53677 6.42028 6.68446C6.45607 6.79579 6.65973 6.84195 6.88314 6.89259C7.10952 6.94389 7.35617 6.9998 7.46898 7.13276C7.69313 7.39693 7.50901 7.66111 7.39693 7.66111C7.35797 7.67502 7.16905 7.598 6.93444 7.50234C6.49417 7.32283 5.89299 7.07771 5.81988 7.24483C5.73744 7.38801 5.83373 7.50768 5.92647 7.62294C6.00485 7.72035 6.08069 7.81462 6.04403 7.91728C6.00983 8.02369 5.86376 7.98757 5.71975 7.95196C5.56042 7.91255 5.4036 7.87377 5.4036 8.02935C5.4036 8.15539 5.57489 8.29783 5.74184 8.43667C5.92484 8.58884 6.10263 8.73669 6.04403 8.8539C5.93195 9.07805 5.73983 8.92595 5.73983 8.92595C5.73983 8.92595 5.4036 9.07805 5.36358 9.1501C5.32355 9.22215 5.73983 9.3022 5.73983 9.3022L5.77985 9.4543L5.44363 9.49433C5.44363 9.49433 5.17945 9.79053 5.13943 9.91061C5.11888 9.96814 5.39574 10.0552 5.67009 10.1415C5.93023 10.2233 6.18813 10.3044 6.18813 10.3589C6.22815 10.471 6.1481 10.511 6.1481 10.511C6.1481 10.511 6.41228 10.471 6.52435 10.511C6.63642 10.551 6.97265 10.8072 6.97265 10.8072C6.97265 10.8072 7.57305 10.6551 7.7972 10.6951C8.02135 10.7352 8.3976 10.8793 8.3976 10.8793L8.0934 10.9513L8.3976 11.2555C8.3976 11.2555 7.9493 11.4076 7.6451 11.3676C7.41985 11.3379 7.05415 11.124 6.81774 10.9856C6.73488 10.9371 6.6679 10.898 6.62842 10.8793C6.47632 10.8072 5.95597 10.8392 5.95597 10.8392C5.95597 10.8392 5.09139 10.2388 4.90727 10.3909C4.77979 10.5184 4.84803 10.8109 4.90208 11.0426C4.92609 11.1455 4.9473 11.2364 4.9473 11.2955C4.9473 11.4877 4.87525 11.936 4.87525 11.936C4.87525 11.936 6.11608 11.936 6.4523 12.048C6.78853 12.1601 6.98065 12.2722 6.98065 12.2722H7.3569L7.46898 12.6084C7.46898 12.6084 8.62975 12.6084 8.59773 12.6805C8.59773 12.7165 8.51336 12.7346 8.42412 12.7536C8.3352 12.7726 8.24146 12.7926 8.22148 12.8326C8.14943 12.9046 8.22148 13.0167 8.22148 13.0167H8.63776L9.54236 13.2008L8.18946 13.3129C8.18946 13.3129 8.22949 13.8733 8.34156 13.9533C8.45364 14.0254 8.71781 13.9933 8.78986 13.9133C8.94196 13.9533 9.01401 13.8733 9.01401 13.8733C9.01401 13.8733 10.0307 14.5137 10.0627 14.7779C10.0823 14.9074 9.98265 14.9003 9.84574 14.8905C9.7034 14.8804 9.52083 14.8673 9.39026 15.002C9.27819 15.1541 9.35023 15.3062 9.43029 15.4183C9.44637 15.4633 9.44953 15.4967 9.45223 15.5252C9.45624 15.5677 9.45923 15.5993 9.50234 15.6424C9.54718 15.7161 9.67019 15.7667 9.79447 15.8178C9.9808 15.8945 10.17 15.9723 10.1027 16.1308C9.94108 16.2924 9.83638 16.2143 9.74461 16.1458C9.68641 16.1023 9.63341 16.0628 9.57438 16.0907C9.42228 16.1628 9.61441 16.8032 9.61441 16.8032C9.61441 16.8032 10.6631 17.1074 10.519 17.3636C10.4377 17.5049 10.3151 17.4423 10.1843 17.3757C10.0707 17.3177 9.95082 17.2565 9.84657 17.3235C9.62242 17.4356 9.77452 18.1081 9.77452 18.1081C9.77452 18.1081 10.1908 18.068 10.1908 18.2201C10.1908 18.2921 10.0905 18.2799 9.98063 18.2665C9.85811 18.2516 9.72357 18.2352 9.70247 18.3322C9.63042 18.4843 9.85457 18.5564 9.85457 18.5564C9.85457 18.5564 9.85457 19.2288 9.81454 19.3089C9.77452 19.3809 9.59039 19.3809 9.59039 19.3809C9.59039 19.3809 9.70247 19.6451 10.0067 19.8292C10.1529 19.9134 10.2525 19.848 10.3381 19.7918C10.4072 19.7465 10.4671 19.7071 10.535 19.7572C10.6871 19.8692 10.2708 20.1735 10.2708 20.1735C10.2708 20.1735 10.4229 20.3976 10.495 20.7739C10.567 21.1501 10.567 21.7105 10.567 21.7105C10.567 21.7105 10.9833 22.0467 11.0954 22.3509C11.1416 22.4763 11.2 22.6765 11.2584 22.8764C11.3416 23.1614 11.4246 23.4458 11.4716 23.5117C11.5325 23.6063 11.8902 23.8894 12 23.9751V24L12.0154 23.9871C12.0261 23.9954 12.032 24 12.032 24V23.973C12.1366 23.8849 12.4665 23.6056 12.5604 23.5117C12.6016 23.4476 12.682 23.1767 12.7643 22.8996L12.7644 22.8996L12.7644 22.8995C12.826 22.692 12.8887 22.4811 12.9366 22.3509C13.0487 22.0467 13.465 21.7105 13.465 21.7105C13.465 21.7105 13.465 21.1501 13.537 20.7739C13.6091 20.3976 13.7612 20.1735 13.7612 20.1735C13.7612 20.1735 13.3449 19.8692 13.497 19.7572C13.5649 19.7071 13.6249 19.7465 13.6939 19.7918C13.7795 19.848 13.8791 19.9134 14.0254 19.8292C14.3296 19.6451 14.4416 19.3809 14.4416 19.3809C14.4416 19.3809 14.2575 19.3809 14.2175 19.3089C14.1775 19.2288 14.1775 18.5564 14.1775 18.5564C14.1775 18.5564 14.3696 18.5163 14.3296 18.3322C14.3085 18.2352 14.1739 18.2516 14.0514 18.2665C13.9415 18.2799 13.8412 18.2921 13.8412 18.2201C13.8412 18.068 14.2575 18.1081 14.2575 18.1081C14.2575 18.1081 14.4096 17.4356 14.1855 17.3235C14.0804 17.256 13.9577 17.3169 13.8421 17.3743C13.7112 17.4392 13.5895 17.4996 13.513 17.3636C13.3689 17.1074 14.4176 16.8032 14.4176 16.8032C14.4176 16.8032 14.6097 16.1628 14.4576 16.0907C14.3986 16.0628 14.3456 16.1023 14.2874 16.1458C14.1956 16.2143 14.0909 16.2924 13.9293 16.1308C13.8621 15.9723 14.0512 15.8945 14.2376 15.8178C14.3618 15.7667 14.4848 15.7161 14.5297 15.6424C14.5728 15.5993 14.5758 15.5677 14.5798 15.5252C14.5825 15.4967 14.5857 15.4633 14.6017 15.4183C14.6818 15.3062 14.7538 15.1541 14.6418 15.002C14.5071 14.8631 14.317 14.8703 14.1729 14.8757C14.0429 14.8806 13.9503 14.8841 13.9693 14.7779C14.0013 14.5137 15.018 13.8733 15.018 13.8733C15.018 13.8733 15.1301 13.9453 15.2021 14.0254C15.2742 14.1054 15.5384 14.1454 15.6504 14.0654C15.7625 13.9853 15.8025 13.425 15.8025 13.425L14.4496 13.3129L15.3542 13.1288H15.7705C15.7705 13.1288 15.8426 13.0167 15.7705 12.9446C15.7499 12.9034 15.6614 12.8834 15.5749 12.8639C15.4934 12.8455 15.4137 12.8275 15.3943 12.7925C15.3622 12.7205 16.523 12.7205 16.523 12.7205L16.6351 12.3042H17.0113C17.0113 12.3042 17.2355 12.1521 17.5397 12.0801C17.8759 11.968 19.1167 11.968 19.1167 11.968C19.1167 11.968 19.0447 11.5197 19.0447 11.3276C19.0447 11.2685 19.0659 11.1775 19.0899 11.0746C19.144 10.8429 19.2122 10.5504 19.0847 10.4229C18.9006 10.2708 18.036 10.8712 18.036 10.8712C18.036 10.8712 17.5157 10.8712 17.3636 10.9113C17.3241 10.93 17.2571 10.9692 17.1743 11.0177C16.9379 11.156 16.5721 11.37 16.3469 11.3996C16.0427 11.4396 15.5944 11.2875 15.5944 11.2875L15.8986 10.9833L15.5944 10.9113C15.5944 10.9113 15.9706 10.7672 16.1948 10.7272C16.4189 10.6871 17.0193 10.8392 17.0193 10.8392C17.0193 10.8392 17.3556 10.5831 17.4676 10.543C17.5797 10.503 17.8439 10.543 17.8439 10.543C17.8439 10.543 17.7638 10.503 17.8039 10.3909C17.8039 10.3349 18.066 10.2508 18.3282 10.1668C18.5904 10.0827 18.8526 9.99867 18.8526 9.94263C18.8125 9.82255 18.5484 9.52635 18.5484 9.52635L18.2121 9.48633L18.2522 9.33422C18.2522 9.33422 18.6684 9.25417 18.6284 9.18212C18.5884 9.11007 18.2522 8.95797 18.2522 8.95797C18.2522 8.95797 18.06 9.11007 17.948 8.88592C17.8894 8.76871 18.0672 8.62086 18.2502 8.46869C18.4171 8.32985 18.5884 8.18741 18.5884 8.06137C18.5884 7.90579 18.4316 7.94457 18.2722 7.98398C18.1282 8.01959 17.9822 8.05571 17.948 7.9493C17.9113 7.84664 17.9871 7.75237 18.0655 7.65497C18.1583 7.5397 18.2546 7.42003 18.1721 7.27685C18.099 7.10974 17.4978 7.35485 17.0576 7.53436C16.8229 7.63002 16.634 7.70704 16.5951 7.69313C16.483 7.69313 16.2989 7.42895 16.523 7.16478C16.6358 7.03182 16.8825 6.97592 17.1089 6.92461C17.3323 6.87397 17.5359 6.82781 17.5717 6.71648C17.5948 6.56879 17.4662 6.6047 17.3394 6.64012C17.2462 6.66614 17.1539 6.69189 17.1234 6.64443C17.0514 6.56438 17.2355 6.11608 17.2355 6.11608H17.0113C17.0113 6.11608 17.0113 6.22815 16.8993 6.26818C16.7872 6.3002 16.6751 6.22815 16.6751 6.22815C16.6751 6.22815 16.2989 6.6044 15.9626 6.38025C15.7705 6.26017 16.1468 6.07605 16.1468 6.07605L16.0747 5.8519C16.0747 5.8519 16.3389 5.81988 16.4109 5.77985C16.483 5.73983 16.5951 5.62775 16.5951 5.62775C16.5951 5.62775 16.7872 5.65977 16.8592 5.58773C16.9313 5.51568 17.0434 5.13943 17.0434 5.13943C17.0434 5.13943 16.7872 5.0994 16.7071 4.91528C16.6271 4.73115 16.7392 4.61908 16.7792 4.57905C16.8192 4.54703 16.6671 4.39493 16.6671 4.39493C16.6671 4.39493 16.3229 4.77118 16.1388 4.84323C15.9466 4.9553 15.6504 4.9553 15.4983 4.77118C15.3462 4.58706 16.0987 3.98666 16.0987 3.98666C16.0987 3.98666 15.9867 3.79453 15.9466 3.57038C15.9466 3.34623 15.9867 3.01001 15.9867 3.01001C15.9867 3.01001 15.8025 3.05003 15.7625 2.74583C15.7408 2.58054 15.7852 2.51688 15.8187 2.4688C15.8469 2.4284 15.8675 2.39901 15.8346 2.32955C15.7983 2.25709 15.7418 2.29598 15.6804 2.33829C15.6196 2.38012 15.554 2.42529 15.4983 2.36958C15.3863 2.25751 15.4983 1.61708 15.4983 1.61708C15.4983 1.61708 15.1221 1.01668 15.0821 0.792528C15.05 0.568379 15.01 0.304203 15.01 0.304203C15.01 0.304203 14.97 0 14.8579 0C14.7458 0 14.6338 0.232155 14.6338 0.304203C14.6338 0.376251 14.8179 0.640427 14.8179 0.640427L14.7058 0.752502C14.7058 0.752502 14.6338 1.24083 14.6338 1.3529C14.6338 1.46498 14.8979 1.9533 14.8979 1.9533C14.8979 1.9533 14.97 2.28152 14.8259 2.51368C14.6818 2.74583 14.2655 2.44163 14.2655 2.44163C14.2655 2.44163 14.3776 2.63376 14.4176 2.7058C14.4427 2.75096 14.5118 2.78353 14.55 2.80156C14.5728 2.8123 14.5847 2.81788 14.5697 2.81788C14.5697 2.83142 14.5651 2.87888 14.5591 2.94164L14.559 2.94195L14.559 2.94204C14.5472 3.06475 14.5297 3.24572 14.5297 3.34623C14.5297 3.42808 14.5505 3.47747 14.5698 3.5231C14.5864 3.56227 14.6017 3.59867 14.6017 3.65043C14.6017 3.72248 14.5697 3.94663 14.5297 3.98666C14.4897 4.01868 14.1534 4.05871 14.1534 4.05871C14.1534 4.05871 14.0414 4.43496 13.9293 4.507C13.8092 4.58706 13.6251 4.54703 13.6251 4.54703C13.6251 4.54703 13.6651 5.29953 13.7372 5.41161C13.766 5.45654 13.7834 5.47059 13.7963 5.4811C13.8156 5.49681 13.8253 5.50461 13.8492 5.59573C13.8893 5.74783 13.8893 6.83656 13.8893 6.83656C13.8893 6.83656 13.9693 7.54903 14.0414 7.85324C14.0817 8.02356 14.0417 8.13366 14.0114 8.21725C13.9875 8.28294 13.9696 8.33227 14.0013 8.38159C14.038 8.43859 14.5034 8.51631 14.9666 8.59367C15.4141 8.6684 15.8595 8.7428 15.9146 8.79787C15.9848 8.86802 15.9953 9.02599 16.0032 9.14417C16.0079 9.2148 16.0117 9.27122 16.0267 9.28619C16.0667 9.31821 16.1388 9.39026 16.1388 9.47031C16.1388 9.55037 15.9867 9.62242 15.9867 9.62242C15.9867 9.62242 16.0187 9.88659 15.9466 9.95864C15.9466 9.98704 15.7572 10.0316 15.487 10.0951C15.3764 10.1211 15.2523 10.1502 15.1221 10.1828C15.0674 10.2004 15.0108 10.2203 14.952 10.2411C14.77 10.3053 14.5675 10.3767 14.3376 10.4069C14.2658 10.4269 14.1921 10.417 14.1174 10.4071C14.042 10.397 13.9657 10.3868 13.8893 10.4069C13.513 10.447 13.2168 10.519 13.1768 10.559C13.1301 10.5891 13.057 10.6789 12.9823 10.7705C12.8779 10.8988 12.7705 11.0307 12.7285 11.0073C12.6484 10.9673 12.6164 10.7031 12.6885 10.519C12.7087 10.4827 12.7574 10.4443 12.8244 10.3915C12.8901 10.3397 12.9735 10.274 13.0647 10.1828C13.1078 10.1397 13.1504 10.0931 13.1937 10.0457C13.3434 9.88191 13.5002 9.71034 13.7051 9.65444C14.2335 9.50234 14.946 9.61441 14.946 9.61441C14.946 9.61441 15.018 9.95063 15.3943 9.87859C15.6702 9.84924 15.662 9.75963 15.6537 9.66972C15.6508 9.63702 15.6478 9.60428 15.6584 9.57438C15.6722 9.54688 15.7029 9.52411 15.7374 9.49859C15.8032 9.44983 15.8826 9.39106 15.8826 9.27018C15.9029 9.15342 14.8383 9.09461 14.0097 9.04883C13.5316 9.02242 13.1321 9.00034 13.0647 8.97398C12.9274 8.92665 12.8461 8.80373 12.7794 8.7029C12.7334 8.63321 12.6942 8.57406 12.6484 8.55771C12.5507 8.52281 12.1365 8.51834 12.032 8.51776V23.973L12.0154 23.9871C12.0127 23.985 12.0098 23.9827 12.0065 23.9802L12 23.9751V8.51768Z" fill="black" fill-opacity="0.5"/>
<path d="M12.008 8.51768C12.008 8.51768 12.0052 8.51766 12 8.51768V23.9751L12.0065 23.9802L12.0154 23.9871L12.032 23.973V8.51776C12.0167 8.51768 12.008 8.51768 12.008 8.51768Z" fill="#BBDD00"/>
<path d="M12.008 8.51768C12.008 8.51768 12.0052 8.51766 12 8.51768V23.9751L12.0065 23.9802L12.0154 23.9871L12.032 23.973V8.51776C12.0167 8.51768 12.008 8.51768 12.008 8.51768Z" fill="black" fill-opacity="0.5"/>
</svg>
