<svg viewBox="0 0 24 24" xmlns="http://www.w3.org/2000/svg">
<path d="M17.8164 4.47C17.7363 4.47 17.6563 4.45 17.5863 4.41C15.666 3.42 14.0057 3 12.0153 3C10.0349 3 8.15459 3.47 6.44428 4.41C6.20424 4.54 5.90418 4.45 5.76416 4.21C5.70178 4.09305 5.68779 3.95629 5.72519 3.82913C5.7626 3.70197 5.84842 3.59456 5.96419 3.53C7.82453 2.52 9.8649 2 12.0153 2C14.1457 2 16.006 2.47 18.0464 3.52C18.2964 3.65 18.3865 3.95 18.2564 4.19C18.2169 4.27336 18.1546 4.34387 18.0767 4.3934C17.9989 4.44294 17.9086 4.46949 17.8164 4.47ZM3.50374 9.72C3.41155 9.72086 3.32092 9.69617 3.2419 9.64866C3.16289 9.60116 3.09858 9.5327 3.05611 9.45088C3.01363 9.36906 2.99466 9.27708 3.00129 9.18514C3.00792 9.09319 3.0399 9.00488 3.09367 8.93C4.08385 7.53 5.34408 6.43 6.84435 5.66C9.98492 4.04 14.0057 4.03 17.1562 5.65C18.6565 6.42 19.9167 7.51 20.9069 8.9C20.9453 8.95374 20.9726 9.01455 20.9874 9.07891C21.0021 9.14328 21.004 9.20992 20.9928 9.27501C20.9817 9.34009 20.9577 9.40232 20.9224 9.4581C20.887 9.51388 20.841 9.56211 20.7869 9.6C20.5569 9.76 20.2468 9.71 20.0868 9.48C19.2109 8.24038 18.0474 7.23156 16.6961 6.54C13.8256 5.07 10.155 5.07 7.29443 6.55C5.93419 7.25 4.79398 8.25 3.89381 9.51C3.8138 9.65 3.66377 9.72 3.50374 9.72ZM9.75488 21.79C9.68929 21.7908 9.62427 21.7779 9.56398 21.752C9.50369 21.7262 9.44947 21.688 9.40482 21.64C8.53466 20.77 8.06458 20.21 7.39445 19C6.70433 17.77 6.34426 16.27 6.34426 14.66C6.34426 11.69 8.88472 9.27 12.0053 9.27C15.1259 9.27 17.6663 11.69 17.6663 14.66C17.6663 14.94 17.4463 15.16 17.1662 15.16C16.8862 15.16 16.6661 14.94 16.6661 14.66C16.6661 12.24 14.5758 10.27 12.0053 10.27C9.43482 10.27 7.34444 12.24 7.34444 14.66C7.34444 16.1 7.6645 17.43 8.27461 18.51C8.91473 19.66 9.35481 20.15 10.125 20.93C10.315 21.13 10.315 21.44 10.125 21.64C10.0149 21.74 9.88491 21.79 9.75488 21.79ZM16.9262 19.94C15.736 19.94 14.6858 19.64 13.8256 19.05C12.3354 18.04 11.4452 16.4 11.4452 14.66C11.4452 14.38 11.6652 14.16 11.9453 14.16C12.2253 14.16 12.4454 14.38 12.4454 14.66C12.4454 16.07 13.1655 17.4 14.3857 18.22C15.0959 18.7 15.926 18.93 16.9262 18.93C17.1662 18.93 17.5663 18.9 17.9664 18.83C18.2364 18.78 18.4965 18.96 18.5465 19.24C18.5965 19.51 18.4165 19.77 18.1364 19.82C17.5663 19.93 17.0662 19.94 16.9262 19.94ZM14.9158 22C14.8758 22 14.8258 21.99 14.7858 21.98C13.1955 21.54 12.1553 20.95 11.0651 19.88C10.3743 19.198 9.82647 18.385 9.45379 17.4887C9.08111 16.5923 8.89105 15.6307 8.89473 14.66C8.89473 13.04 10.275 11.72 11.9753 11.72C13.6756 11.72 15.0559 13.04 15.0559 14.66C15.0559 15.73 15.986 16.6 17.1362 16.6C18.2864 16.6 19.2166 15.73 19.2166 14.66C19.2166 10.89 15.966 7.83 11.9653 7.83C9.12477 7.83 6.52429 9.41 5.35408 11.86C4.96401 12.67 4.76397 13.62 4.76397 14.66C4.76397 15.44 4.83399 16.67 5.4341 18.27C5.53411 18.53 5.40409 18.82 5.14404 18.91C4.884 19.01 4.59394 18.87 4.50393 18.62C4.02198 17.3553 3.77456 16.0134 3.77379 14.66C3.77379 13.46 4.00383 12.37 4.45392 11.42C5.78416 8.63 8.7347 6.82 11.9653 6.82C16.5161 6.82 20.2168 10.33 20.2168 14.65C20.2168 16.27 18.8365 17.59 17.1362 17.59C15.4359 17.59 14.0557 16.27 14.0557 14.65C14.0557 13.58 13.1255 12.71 11.9753 12.71C10.8251 12.71 9.89491 13.58 9.89491 14.65C9.89491 16.36 10.555 17.96 11.7652 19.16C12.7154 20.1 13.6256 20.62 15.0358 21.01C15.3059 21.08 15.4559 21.36 15.3859 21.62C15.3359 21.85 15.1259 22 14.9158 22Z" />
</svg>
