<svg width="760" height="128" viewBox="0 0 760 128" fill="none" xmlns="http://www.w3.org/2000/svg">
<g clip-path="url(#clip0_44_504)">
<path d="M0 29.8306V60.2175L1.84705 64.0001L3.6941 67.7827V78.248V88.7132L1.84705 92.4958L0 96.2784V112.418V128.557H31.523H63.046L66.3215 126.892L69.5723 125.228L72.8477 126.892L76.0985 128.557H101.095H126.092V102.961V77.3653L124.467 74.0114L122.841 70.6827L124.467 67.3288L126.092 64.0001V31.7219V-0.556396H118.211H110.331L107.129 1.08273L103.927 2.72186L100.726 1.08273L97.5243 -0.556396H82.1322H66.7401L63.046 1.33491L59.3519 3.22621H49.1316H38.9112L35.2171 1.33491L31.523 -0.556396H15.7615H0V29.8306ZM66.3215 50.408C86.5405 65.9671 103.263 78.8784 103.484 79.1053C103.878 79.4836 103.78 80.3158 102.056 92.6219C101.071 99.8088 100.233 105.735 100.233 105.785C100.233 105.836 96.884 105.836 92.7959 105.811L85.3584 105.735L80.63 100.061L75.8769 94.3871L74.9164 90.2767C74.3746 88.0071 73.9067 86.141 73.8574 86.0906C73.8082 86.0401 72.0843 85.2836 70.0156 84.401L66.2722 82.7871L44.1815 56.208L22.1154 29.6288L25.7602 25.8966C27.7797 23.8288 29.4543 22.1393 29.5036 22.1393C29.5282 22.1393 46.1024 34.874 66.3215 50.408ZM98.4602 27.7627L103.927 33.361L103.878 44.6584L103.804 55.9306L87.304 39.0349L70.8036 22.1393H81.886H92.9683L98.4602 27.7627ZM44.4031 105.811L33.3701 105.861L27.7797 100.137L22.1646 94.3871V83.0393V71.7167L38.7881 88.7132L55.4115 105.735L44.4031 105.811Z" fill="#BBDD00"/>
<path d="M196.577 113.45C189.936 113.45 184.052 112.03 178.925 109.19C173.881 106.263 169.93 102.218 167.072 97.0531C164.298 91.8023 162.911 85.734 162.911 78.8481V55.6078C162.911 48.7219 164.298 42.6965 167.072 37.532C169.93 32.2813 173.881 28.2358 178.925 25.3953C184.052 22.4688 189.936 21.0055 196.577 21.0055H209.943C216.584 21.0055 222.426 22.4688 227.47 25.3953C232.598 28.2358 236.549 32.2813 239.323 37.532C242.181 42.6965 243.61 48.7219 243.61 55.6078V78.8481C243.61 85.734 242.181 91.8023 239.323 97.0531C236.549 102.218 232.598 106.263 227.47 109.19C222.426 112.03 216.584 113.45 209.943 113.45H196.577ZM209.943 97.6986C214.819 97.6986 218.728 95.8911 221.67 92.2759C224.696 88.6607 226.209 83.9264 226.209 78.0735V56.3825C226.209 50.5295 224.696 45.7952 221.67 42.18C218.728 38.5649 214.819 36.7573 209.943 36.7573H196.577C191.702 36.7573 187.751 38.5649 184.725 42.18C181.783 45.7952 180.312 50.5295 180.312 56.3825V78.0735C180.312 83.9264 181.783 88.6607 184.725 92.2759C187.751 95.8911 191.702 97.6986 196.577 97.6986H209.943ZM256.173 47.9901H272.06V54.9622C273.825 52.5519 276.053 50.6152 278.743 49.1521C281.517 47.689 284.207 46.9572 286.813 46.9572H294.757C299.8 46.9572 304.256 48.033 308.122 50.185C311.989 52.2508 314.973 55.1776 317.075 58.9647C319.177 62.7519 320.227 67.0988 320.227 72.0051V86.4658C320.227 91.8023 319.177 96.5366 317.075 100.668C314.973 104.714 312.031 107.856 308.249 110.093C304.466 112.331 300.094 113.45 295.135 113.45H286.939C284.585 113.45 282.148 112.891 279.626 111.772C277.188 110.653 275.086 109.147 273.321 107.253V138.24H256.173V47.9901ZM292.865 98.3442C295.976 98.3442 298.455 97.1393 300.305 94.729C302.154 92.3188 303.079 89.1343 303.079 85.1747V73.2963C303.079 69.9393 302.112 67.228 300.179 65.1622C298.329 63.0963 295.85 62.0634 292.739 62.0634H285.048C282.61 62.0634 280.298 63.0963 278.113 65.1622C275.927 67.1417 274.33 69.724 273.321 72.9089V85.6911C273.741 89.4783 275.002 92.5341 277.104 94.8582C279.289 97.1822 281.937 98.3442 285.048 98.3442H292.865ZM356.733 113.45C351.437 113.45 346.73 112.46 342.611 110.481C338.576 108.415 335.423 105.575 333.154 101.959C330.884 98.258 329.749 94.0406 329.749 89.3063V72.6507C329.749 67.5724 330.884 63.0963 333.154 59.223C335.423 55.3496 338.576 52.3371 342.611 50.185C346.73 48.033 351.437 46.9572 356.733 46.9572H366.82C374.89 46.9572 381.363 49.2812 386.238 53.9293C391.114 58.5774 393.552 64.7748 393.552 72.5216V86.2076H346.898V89.3063C346.898 92.1468 347.78 94.4279 349.546 96.1493C351.311 97.8706 353.707 98.7315 356.733 98.7315H366.568C369.51 98.7315 371.864 98.086 373.629 96.7948C375.479 95.4175 376.403 93.6533 376.403 91.5012H393.3C393.3 95.8048 392.165 99.6353 389.895 102.992C387.625 106.349 384.431 108.931 380.312 110.739C376.277 112.547 371.612 113.45 366.316 113.45H356.733ZM376.655 73.5545V72.5216C376.655 69.1647 375.773 66.4962 374.008 64.5166C372.242 62.4508 369.888 61.4179 366.946 61.4179H356.733C353.707 61.4179 351.269 62.4936 349.42 64.6457C347.57 66.7978 346.646 69.6382 346.646 73.1672V73.5545H376.655ZM405.168 47.9901H421.056V55.7369C422.905 53.0684 425.301 50.9597 428.243 49.4104C431.185 47.7748 434.127 46.9572 437.069 46.9572H444.635C451.36 46.9572 456.74 49.1093 460.775 53.4129C464.894 57.7165 466.953 63.3974 466.953 70.4558V112.418H449.805V71.1014C449.805 68.4328 449.09 66.2813 447.661 64.6457C446.316 63.0101 444.551 62.1926 442.365 62.1926H434.8C431.858 62.1926 429.21 63.3117 426.856 65.5495C424.586 67.7015 423.073 70.542 422.317 74.071V112.418H405.168V47.9901ZM493.507 112.418C489.894 112.418 486.952 111.298 484.683 109.061C482.413 106.823 481.278 103.896 481.278 100.281V22.0384H523.395C530.118 22.0384 536.004 23.3295 541.048 25.9118C546.175 28.4941 550.126 32.1522 552.899 36.8864C555.755 41.6207 557.184 47.0863 557.184 53.2838V78.5899C557.184 89.6936 554.371 98.1288 548.737 103.896C543.107 109.577 534.827 112.418 523.897 112.418H493.507ZM523.395 96.6657C528.774 96.6657 532.852 95.0735 535.625 91.8886C538.398 88.7036 539.787 84.0127 539.787 77.8152V54.0584C539.787 49.1521 538.231 45.2359 535.118 42.3091C532.01 39.2967 527.931 37.7902 522.888 37.7902H498.679V96.6657H523.395ZM593.647 113.45C588.347 113.45 583.643 112.418 579.521 110.352C575.487 108.2 572.334 105.187 570.064 101.314C567.882 97.4404 566.788 92.9643 566.788 87.886V72.7798C566.788 67.7015 567.921 63.2255 570.192 59.3521C572.463 55.3924 575.615 52.3371 579.649 50.185C583.766 48.033 588.475 46.9572 593.77 46.9572H605.118C610.413 46.9572 615.083 48.033 619.117 50.185C623.234 52.3371 626.431 55.3924 628.697 59.3521C630.967 63.2255 632.105 67.7015 632.105 72.7798V87.886C632.105 92.9643 630.967 97.4404 628.697 101.314C626.431 105.187 623.234 108.2 619.117 110.352C615.083 112.418 610.374 113.45 604.995 113.45H593.647ZM604.739 98.3442C607.852 98.3442 610.33 97.2684 612.182 95.1164C614.029 92.8786 614.955 89.9947 614.955 86.4658V73.9418C614.955 70.4129 614.029 67.5724 612.182 65.4204C610.33 63.1826 607.891 62.0634 604.867 62.0634H594.021C590.997 62.0634 588.559 63.1826 586.712 65.4204C584.86 67.5724 583.934 70.4129 583.934 73.9418V86.4658C583.934 89.9947 584.86 92.8786 586.712 95.1164C588.559 97.2684 590.953 98.3442 593.898 98.3442H604.739ZM670.928 112.418C663.529 112.418 658.107 110.696 654.659 107.253C651.211 103.81 649.492 98.4733 649.492 91.243V62.9672H638.395V47.9901H649.994V28.494H666.637V47.9901H683.029V62.9672H666.637V90.4683C666.637 92.8786 667.061 94.6428 667.898 95.7619C668.824 96.8811 670.253 97.4404 672.188 97.4404H683.029V112.418H670.928ZM713.602 113.45C707.041 113.45 701.746 111.772 697.712 108.415C693.678 105.058 691.659 100.625 691.659 95.1164V90.3392C691.659 84.9164 693.762 80.5695 697.964 77.2988C702.17 73.9418 707.716 72.2634 714.607 72.2634H722.3C724.487 72.2634 726.842 72.5645 729.363 73.1672C731.885 73.7699 734.195 74.5874 736.298 75.6203V68.9064C736.298 66.7544 735.584 65.033 734.151 63.7419C732.806 62.3645 730.999 61.6761 728.733 61.6761H717.887C715.533 61.6761 713.641 62.2354 712.213 63.3546C710.784 64.4737 710.07 65.9797 710.07 67.8735H693.427C693.427 61.5899 695.653 56.5544 700.106 52.7673C704.647 48.8939 710.573 46.9572 717.887 46.9572H728.733C736.126 46.9572 742.096 48.9802 746.637 53.0255C751.173 56.9852 753.444 62.2788 753.444 68.9064V112.418H737.559V104.671C735.54 107.339 733.062 109.491 730.117 111.126C727.176 112.676 724.275 113.45 721.419 113.45H713.602ZM722.679 100.023C725.787 100.023 728.56 99.2051 730.998 97.5695C733.437 95.9339 735.205 93.739 736.298 90.9848V88.7898C734.954 87.7569 733.062 86.9394 730.624 86.3367C728.27 85.734 725.748 85.4329 723.059 85.4329H715.114C713.094 85.4329 711.454 85.9493 710.193 86.9823C708.932 88.0152 708.302 89.3925 708.302 91.1139V94.4708C708.302 96.1064 708.977 97.4404 710.321 98.4733C711.75 99.5062 713.602 100.023 715.868 100.023H722.679Z" fill="white"/>
</g>
<defs>
<clipPath id="clip0_44_504">
<rect width="760" height="128" fill="white"/>
</clipPath>
</defs>
</svg>
