<svg width="24" height="24" viewBox="0 0 24 24" fill="none" xmlns="http://www.w3.org/2000/svg">
<path d="M11.8996 10.3836C13.4517 10.3836 14.7099 8.05916 14.7099 5.1918C14.7099 2.32445 13.4517 0 11.8996 0C10.3475 0 9.08933 2.32445 9.08933 5.1918C9.08933 8.05916 10.3475 10.3836 11.8996 10.3836Z" fill="#FA7000"/>
<path d="M11.8996 10.3836C13.4517 10.3836 14.7099 8.05916 14.7099 5.1918C14.7099 2.32445 13.4517 0 11.8996 0C10.3475 0 9.08933 2.32445 9.08933 5.1918C9.08933 8.05916 10.3475 10.3836 11.8996 10.3836Z" fill="black" fill-opacity="0.5"/>
<path d="M24 17.0104C24 17.0104 21.7919 16.5186 21.7919 15.2771C21.7518 14.0356 22.5065 13.4713 22.5065 13.4713C22.5065 13.4713 22.4343 13.3181 22.4664 13.1327C22.5065 12.9473 23.1007 12.9473 23.1007 12.9473C23.1007 12.9473 23.0284 12.7618 23.0606 12.5684C23.0606 12.4152 23.3255 12.2298 23.3255 12.2298C23.3255 12.2298 22.9883 12.1895 22.916 12.0766C22.8036 11.9637 22.8036 11.7783 22.8036 11.7783C22.8036 11.7783 20.3707 12.1169 20.5152 10.9882C20.6598 9.85959 22.2416 9.93215 22.2416 9.93215L22.1693 9.32751C22.1693 9.32751 21.4225 9.2872 21.2298 9.10178C21.1576 9.02922 20.5152 7.25563 19.7283 5.869C18.829 4.28888 17.8173 3.08767 17.8173 3.08767L17.0706 3.3134L17.183 4.85321C17.183 4.85321 18.2349 5.11925 18.4918 5.94155C18.8692 7.14276 17.7772 10.9076 16.4282 11.3994C15.3041 11.8105 14.0274 11.472 14.0274 11.472L13.9873 12.2217L15.3362 13.3504L14.2523 13.8744L13.915 13.31L13.5055 13.9872H13.0157L12.6383 14.4387L12.004 14.5113L11.3697 14.3984L10.9923 13.9469H10.5025L10.0529 13.2697L9.75577 13.8744L8.74406 13.3826L10.093 12.2539L10.0529 11.5042C10.0529 11.5042 8.77618 11.8831 7.65206 11.4316C6.30311 10.9399 5.21914 7.18307 5.58849 5.9738C5.85346 5.14343 6.89729 4.88546 6.89729 4.88546L6.96955 3.3779L6.22282 3.15217C6.22282 3.15217 5.21111 4.35338 4.31181 5.93349C3.52492 7.28787 2.8906 9.05341 2.8103 9.16628C2.62563 9.31945 1.87086 9.39201 1.87086 9.39201L1.79859 9.99664C1.79859 9.99664 3.37237 9.95633 3.52492 11.0527C3.67748 12.1814 1.23653 11.8428 1.23653 11.8428C1.23653 11.8428 1.23653 11.9154 1.12412 12.0685C1.01171 12.1814 0.71462 12.2217 0.71462 12.2217C0.71462 12.2217 0.979592 12.3749 0.979592 12.5603C0.979592 12.7135 0.939445 12.9392 0.939445 12.9392C0.939445 12.9392 1.54165 12.9392 1.57377 13.1246C1.61392 13.31 1.53362 13.4632 1.53362 13.4632C1.53362 13.4632 2.24824 14.0275 2.24824 15.2691C2.2081 16.4703 0 17.0024 0 17.0024L2.32051 16.6234L3.03513 17.5667L2.58548 17.9778L5.69287 17.6795C5.69287 17.6795 4.83372 18.4293 4.49649 18.5422C4.15925 18.655 3.66945 18.7276 3.66945 18.7276C3.66945 18.7276 4.04684 19.1065 3.7096 19.4773C3.41251 19.7756 2.73804 20.082 2.73804 20.082L4.98628 19.1387H6.6002C6.6002 19.1387 5.58849 19.6305 5.32352 19.8562C5.05855 20.1223 4.83372 20.6463 4.83372 20.6463L3.82201 20.6866C3.82201 20.6866 5.05855 21.2509 5.13081 21.7749C5.17096 22.299 5.05855 22.565 5.05855 22.565L5.84543 23.1696C5.84543 23.1696 5.46805 22.1538 5.62061 21.9281C5.77317 21.7024 6.47976 22.0813 6.817 22.4924C7.33891 23.0568 7.37906 24 7.37906 24C7.37906 24 7.45132 23.5082 7.33891 22.7988C7.2265 21.9362 6.14252 21.6298 5.76514 21.3315C5.4279 21.0655 5.46805 20.5818 5.65273 20.2029C5.98996 19.5983 7.00167 19.1468 7.00167 19.1468L7.07394 19.4854L7.45132 19.1871C7.45132 19.1871 8.16594 20.2754 8.12579 20.6544C8.12579 21.0333 7.94112 21.2912 7.97324 21.5976C8.01338 21.8959 8.46303 22.4602 8.46303 22.4602C8.46303 22.4602 8.31047 22.049 8.35062 21.5976C8.39077 21.1461 8.5353 20.6543 9.02509 20.6947C9.6273 20.735 10.7113 21.6701 10.9762 22.2022C11.2412 22.7262 11.2412 23.7098 11.3536 23.7098C11.466 23.7098 11.6186 22.694 11.731 22.5086C11.8434 22.3231 11.996 22.3231 11.996 22.3231C11.996 22.3231 12.1485 22.3231 12.261 22.5086C12.3734 22.694 12.5259 23.7098 12.6383 23.7098C12.7508 23.7098 12.7508 22.7343 13.0157 22.2022C13.2807 21.6782 14.3647 20.735 14.9669 20.6947C15.4165 20.6543 15.6012 21.1461 15.6414 21.5976C15.6414 22.049 15.5289 22.4602 15.5289 22.4602C15.5289 22.4602 15.9786 21.9362 16.0187 21.5976C16.0589 21.2993 15.9063 21.0333 15.8662 20.6544C15.8662 20.2754 16.5406 19.1871 16.5406 19.1871L16.918 19.4854L16.9903 19.1468C16.9903 19.1468 17.9619 19.5983 18.3392 20.2029C18.5641 20.5415 18.5641 21.0655 18.2268 21.3315C17.8494 21.6298 16.7655 21.9362 16.6531 22.7988C16.5407 23.5163 16.6129 24 16.6129 24C16.6129 24 16.6531 23.0568 17.175 22.4924C17.5524 22.0813 18.2268 21.7024 18.3714 21.9281C18.5159 22.1538 18.1465 23.1696 18.1465 23.1696L18.9334 22.565C18.9334 22.565 18.7809 22.299 18.8612 21.7749C18.9013 21.2509 20.17 20.6866 20.17 20.6866H19.1582C19.1582 20.6866 18.8933 20.1223 18.6685 19.8965C18.4035 19.6305 17.3918 19.179 17.3918 19.179H19.0057L21.2539 20.1223C21.2539 20.1223 20.5795 19.824 20.2824 19.5176C19.9451 19.179 20.3225 18.7679 20.3225 18.7679C20.3225 18.7679 19.8327 18.6953 19.4955 18.5825C19.1582 18.4293 18.2991 17.6795 18.2991 17.6795L21.4065 17.9778L20.9568 17.5667L21.6715 16.6234L24 17.0104ZM6.31917 17.0427L3.69354 17.3087L3.13148 16.559L6.54399 16.6718L6.31917 17.0427ZM11.3777 21.1058C11.3055 21.7427 11.3376 22.0813 11.3376 22.0813C11.3376 22.0813 10.8879 21.517 10.366 21.0252C9.69154 20.4609 9.20174 20.4206 9.20174 20.4206C9.20174 20.4206 9.80395 20.1223 10.5105 20.1223C11.2171 20.1223 11.5945 20.2351 11.5945 20.2351C11.5945 20.2351 11.4098 20.6544 11.3777 21.1058ZM13.6982 21.0736C13.1362 21.525 12.7267 22.1297 12.7267 22.1297C12.7267 22.1297 12.7668 21.7911 12.6865 21.1542C12.6464 20.6624 12.4617 20.2916 12.4617 20.2916C12.4617 20.2916 12.8391 20.1787 13.5457 20.1787C14.2523 20.1787 14.8545 20.477 14.8545 20.477C14.8545 20.477 14.4128 20.4689 13.6982 21.0736ZM20.3707 17.3087L17.7129 17.0427L17.4881 16.7041L20.9006 16.5912L20.3707 17.3087Z" fill="#FA7000"/>
<path d="M24 17.0104C24 17.0104 21.7919 16.5186 21.7919 15.2771C21.7518 14.0356 22.5065 13.4713 22.5065 13.4713C22.5065 13.4713 22.4343 13.3181 22.4664 13.1327C22.5065 12.9473 23.1007 12.9473 23.1007 12.9473C23.1007 12.9473 23.0284 12.7618 23.0606 12.5684C23.0606 12.4152 23.3255 12.2298 23.3255 12.2298C23.3255 12.2298 22.9883 12.1895 22.916 12.0766C22.8036 11.9637 22.8036 11.7783 22.8036 11.7783C22.8036 11.7783 20.3707 12.1169 20.5152 10.9882C20.6598 9.85959 22.2416 9.93215 22.2416 9.93215L22.1693 9.32751C22.1693 9.32751 21.4225 9.2872 21.2298 9.10178C21.1576 9.02922 20.5152 7.25563 19.7283 5.869C18.829 4.28888 17.8173 3.08767 17.8173 3.08767L17.0706 3.3134L17.183 4.85321C17.183 4.85321 18.2349 5.11925 18.4918 5.94155C18.8692 7.14276 17.7772 10.9076 16.4282 11.3994C15.3041 11.8105 14.0274 11.472 14.0274 11.472L13.9873 12.2217L15.3362 13.3504L14.2523 13.8744L13.915 13.31L13.5055 13.9872H13.0157L12.6383 14.4387L12.004 14.5113L11.3697 14.3984L10.9923 13.9469H10.5025L10.0529 13.2697L9.75577 13.8744L8.74406 13.3826L10.093 12.2539L10.0529 11.5042C10.0529 11.5042 8.77618 11.8831 7.65206 11.4316C6.30311 10.9399 5.21914 7.18307 5.58849 5.9738C5.85346 5.14343 6.89729 4.88546 6.89729 4.88546L6.96955 3.3779L6.22282 3.15217C6.22282 3.15217 5.21111 4.35338 4.31181 5.93349C3.52492 7.28787 2.8906 9.05341 2.8103 9.16628C2.62563 9.31945 1.87086 9.39201 1.87086 9.39201L1.79859 9.99664C1.79859 9.99664 3.37237 9.95633 3.52492 11.0527C3.67748 12.1814 1.23653 11.8428 1.23653 11.8428C1.23653 11.8428 1.23653 11.9154 1.12412 12.0685C1.01171 12.1814 0.71462 12.2217 0.71462 12.2217C0.71462 12.2217 0.979592 12.3749 0.979592 12.5603C0.979592 12.7135 0.939445 12.9392 0.939445 12.9392C0.939445 12.9392 1.54165 12.9392 1.57377 13.1246C1.61392 13.31 1.53362 13.4632 1.53362 13.4632C1.53362 13.4632 2.24824 14.0275 2.24824 15.2691C2.2081 16.4703 0 17.0024 0 17.0024L2.32051 16.6234L3.03513 17.5667L2.58548 17.9778L5.69287 17.6795C5.69287 17.6795 4.83372 18.4293 4.49649 18.5422C4.15925 18.655 3.66945 18.7276 3.66945 18.7276C3.66945 18.7276 4.04684 19.1065 3.7096 19.4773C3.41251 19.7756 2.73804 20.082 2.73804 20.082L4.98628 19.1387H6.6002C6.6002 19.1387 5.58849 19.6305 5.32352 19.8562C5.05855 20.1223 4.83372 20.6463 4.83372 20.6463L3.82201 20.6866C3.82201 20.6866 5.05855 21.2509 5.13081 21.7749C5.17096 22.299 5.05855 22.565 5.05855 22.565L5.84543 23.1696C5.84543 23.1696 5.46805 22.1538 5.62061 21.9281C5.77317 21.7024 6.47976 22.0813 6.817 22.4924C7.33891 23.0568 7.37906 24 7.37906 24C7.37906 24 7.45132 23.5082 7.33891 22.7988C7.2265 21.9362 6.14252 21.6298 5.76514 21.3315C5.4279 21.0655 5.46805 20.5818 5.65273 20.2029C5.98996 19.5983 7.00167 19.1468 7.00167 19.1468L7.07394 19.4854L7.45132 19.1871C7.45132 19.1871 8.16594 20.2754 8.12579 20.6544C8.12579 21.0333 7.94112 21.2912 7.97324 21.5976C8.01338 21.8959 8.46303 22.4602 8.46303 22.4602C8.46303 22.4602 8.31047 22.049 8.35062 21.5976C8.39077 21.1461 8.5353 20.6543 9.02509 20.6947C9.6273 20.735 10.7113 21.6701 10.9762 22.2022C11.2412 22.7262 11.2412 23.7098 11.3536 23.7098C11.466 23.7098 11.6186 22.694 11.731 22.5086C11.8434 22.3231 11.996 22.3231 11.996 22.3231C11.996 22.3231 12.1485 22.3231 12.261 22.5086C12.3734 22.694 12.5259 23.7098 12.6383 23.7098C12.7508 23.7098 12.7508 22.7343 13.0157 22.2022C13.2807 21.6782 14.3647 20.735 14.9669 20.6947C15.4165 20.6543 15.6012 21.1461 15.6414 21.5976C15.6414 22.049 15.5289 22.4602 15.5289 22.4602C15.5289 22.4602 15.9786 21.9362 16.0187 21.5976C16.0589 21.2993 15.9063 21.0333 15.8662 20.6544C15.8662 20.2754 16.5406 19.1871 16.5406 19.1871L16.918 19.4854L16.9903 19.1468C16.9903 19.1468 17.9619 19.5983 18.3392 20.2029C18.5641 20.5415 18.5641 21.0655 18.2268 21.3315C17.8494 21.6298 16.7655 21.9362 16.6531 22.7988C16.5407 23.5163 16.6129 24 16.6129 24C16.6129 24 16.6531 23.0568 17.175 22.4924C17.5524 22.0813 18.2268 21.7024 18.3714 21.9281C18.5159 22.1538 18.1465 23.1696 18.1465 23.1696L18.9334 22.565C18.9334 22.565 18.7809 22.299 18.8612 21.7749C18.9013 21.2509 20.17 20.6866 20.17 20.6866H19.1582C19.1582 20.6866 18.8933 20.1223 18.6685 19.8965C18.4035 19.6305 17.3918 19.179 17.3918 19.179H19.0057L21.2539 20.1223C21.2539 20.1223 20.5795 19.824 20.2824 19.5176C19.9451 19.179 20.3225 18.7679 20.3225 18.7679C20.3225 18.7679 19.8327 18.6953 19.4955 18.5825C19.1582 18.4293 18.2991 17.6795 18.2991 17.6795L21.4065 17.9778L20.9568 17.5667L21.6715 16.6234L24 17.0104ZM6.31917 17.0427L3.69354 17.3087L3.13148 16.559L6.54399 16.6718L6.31917 17.0427ZM11.3777 21.1058C11.3055 21.7427 11.3376 22.0813 11.3376 22.0813C11.3376 22.0813 10.8879 21.517 10.366 21.0252C9.69154 20.4609 9.20174 20.4206 9.20174 20.4206C9.20174 20.4206 9.80395 20.1223 10.5105 20.1223C11.2171 20.1223 11.5945 20.2351 11.5945 20.2351C11.5945 20.2351 11.4098 20.6544 11.3777 21.1058ZM13.6982 21.0736C13.1362 21.525 12.7267 22.1297 12.7267 22.1297C12.7267 22.1297 12.7668 21.7911 12.6865 21.1542C12.6464 20.6624 12.4617 20.2916 12.4617 20.2916C12.4617 20.2916 12.8391 20.1787 13.5457 20.1787C14.2523 20.1787 14.8545 20.477 14.8545 20.477C14.8545 20.477 14.4128 20.4689 13.6982 21.0736ZM20.3707 17.3087L17.7129 17.0427L17.4881 16.7041L20.9006 16.5912L20.3707 17.3087Z" fill="black" fill-opacity="0.5"/>
</svg>
