<svg viewBox="0 0 24 24" xmlns="http://www.w3.org/2000/svg">
<path fill-rule="evenodd" clip-rule="evenodd" d="M12 10C13.6569 10 15 8.65685 15 7C15 5.34315 13.6569 4 12 4C10.3432 4 9.00003 5.34315 9.00003 7C9.00003 8.65685 10.3432 10 12 10ZM12 12C14.7614 12 17 9.76142 17 7C17 4.23858 14.7614 2 12 2C9.2386 2 7.00003 4.23858 7.00003 7C7.00003 9.76142 9.2386 12 12 12Z" />
<path fill-rule="evenodd" clip-rule="evenodd" d="M19.8414 18.138L19.074 15.5799C18.473 13.5764 16.4033 12.3992 14.3741 12.9065C12.8154 13.2962 11.1847 13.2962 9.62596 12.9065C7.59672 12.3992 5.5271 13.5764 4.92606 15.5799L4.15864 18.138C3.58119 20.0628 5.02253 22 7.03212 22H16.9679C18.9775 22 20.4189 20.0628 19.8414 18.138ZM6.84171 16.1546L6.07429 18.7127C5.88181 19.3543 6.36226 20 7.03212 20H16.9679C17.6378 20 18.1182 19.3543 17.9258 18.7127L17.1583 16.1546C16.8643 15.1745 15.8519 14.5986 14.8592 14.8468C12.982 15.3161 11.0181 15.3161 9.14089 14.8468C8.14819 14.5986 7.13574 15.1745 6.84171 16.1546Z" />
</svg>
